<?xml version="1.0" standalone="no"?>
<!DOCTYPE svg PUBLIC "-//W3C//DTD SVG 20010904//EN"
 "http://www.w3.org/TR/2001/REC-SVG-20010904/DTD/svg10.dtd">
<svg version="1.0" xmlns="http://www.w3.org/2000/svg"
 width="225.000000pt" height="225.000000pt" viewBox="0 0 225.000000 225.000000"
 preserveAspectRatio="xMidYMid meet">

<g transform="translate(0.000000,225.000000) scale(0.100000,-0.100000)"
fill="#000000" stroke="none">
<path d="M0 1856 l0 -395 29 1 c15 1 33 -2 39 -6 6 -3 13 -3 16 2 3 5 50 8
106 7 55 -2 100 2 100 6 0 14 38 11 44 -3 5 -10 7 -10 12 -1 3 8 13 9 27 4 28
-11 29 -11 79 -11 41 0 46 -11 7 -17 -11 -2 -33 -10 -48 -18 -22 -11 -37 -12
-62 -5 -45 13 -86 12 -130 -4 -26 -9 -42 -10 -55 -3 -17 9 -17 9 -5 -6 12 -15
10 -18 -10 -26 -13 -5 -28 -6 -33 -4 -4 3 -12 -1 -17 -8 -4 -7 -11 -11 -14 -7
-12 12 25 36 47 31 20 -5 21 -4 8 9 -13 12 -101 38 -131 38 -5 0 -9 -24 -9
-54 0 -45 3 -55 17 -55 10 0 34 -3 53 -5 27 -4 29 -4 10 2 -23 8 -22 9 15 16
22 4 46 12 53 18 9 8 12 5 12 -11 0 -11 5 -21 10 -21 6 0 10 -6 10 -14 0 -11
-15 -14 -67 -12 -38 0 -74 5 -80 9 -7 5 -17 5 -23 2 -14 -9 -13 -115 1 -115 8
0 8 -4 1 -13 -17 -21 -15 -506 2 -537 13 -22 12 -27 -1 -42 -27 -30 2 -118 39
-118 6 0 0 9 -13 20 -24 19 -24 19 -3 20 12 0 27 -6 34 -14 6 -8 19 -12 27 -9
10 4 14 2 10 -4 -5 -7 1 -9 15 -5 14 3 19 2 14 -6 -5 -8 0 -12 13 -12 12 0 21
-4 21 -10 0 -5 11 -10 24 -10 14 0 32 -7 41 -16 15 -15 14 -18 -5 -31 -11 -8
-20 -21 -20 -29 0 -8 -4 -14 -9 -14 -20 0 -19 -41 2 -60 26 -24 26 -24 57 1
21 17 22 19 3 10 -29 -15 -30 -15 -29 14 1 14 12 35 24 48 17 16 21 17 17 5
-6 -14 -1 -16 24 -13 19 2 29 0 26 -5 -4 -6 2 -10 13 -10 10 0 30 -10 43 -21
24 -22 24 -22 2 -16 -23 5 -35 -4 -46 -36 -4 -11 -3 -16 3 -12 6 3 10 13 10
21 0 19 9 18 29 -4 9 -11 23 -21 31 -24 9 -3 5 -7 -12 -10 -18 -3 -25 -1 -21
6 4 8 3 8 -6 0 -16 -14 -63 -6 -54 10 4 6 -2 4 -13 -4 -10 -8 -16 -10 -12 -6
10 12 -29 39 -42 31 -6 -4 -8 -10 -5 -15 7 -11 112 -80 122 -80 4 0 2 4 -5 9
-9 5 9 14 55 25 48 12 78 27 100 48 27 26 40 31 77 30 55 0 114 -18 141 -43
11 -10 33 -22 48 -28 42 -16 156 -13 218 5 44 13 78 15 179 9 189 -10 236 -8
281 16 23 11 71 27 107 34 37 8 79 17 94 21 19 4 34 0 52 -13 14 -11 46 -26
71 -33 55 -15 193 -9 205 10 5 7 13 9 21 5 8 -5 11 -5 7 0 -11 12 11 35 28 28
16 -6 19 12 4 22 -5 3 -10 17 -10 31 0 14 -11 35 -25 48 -27 25 -25 31 20 52
55 27 79 43 116 78 20 20 39 36 42 36 3 0 18 11 32 25 l25 26 0 512 0 512 -57
60 c-97 101 -306 268 -478 382 -140 93 -232 145 -251 141 -10 -2 59 -62 187
-162 112 -88 206 -163 209 -166 3 -3 44 -36 93 -74 48 -37 87 -70 87 -72 0
-17 -298 206 -490 367 l-131 109 -709 0 -710 0 0 -394z m680 116 l-21 -17 21
-28 c12 -16 20 -30 17 -33 -3 -3 -15 9 -27 26 -21 30 -21 32 -5 51 10 10 22
19 28 19 5 0 -1 -8 -13 -18z m190 -10 c19 -15 22 -24 15 -48 -5 -16 -8 -44 -6
-62 4 -48 -13 -62 -76 -62 l-55 0 7 78 c8 83 15 99 48 105 40 8 45 7 67 -11z
m135 -2 c30 -33 18 -138 -19 -162 -24 -16 -64 -8 -80 17 -52 80 38 213 99 145z
m78 7 c10 -6 21 -26 26 -42 l9 -30 18 43 c31 77 63 49 66 -57 1 -55 2 -62 5
-26 7 107 9 112 55 118 54 7 78 -6 78 -43 0 -16 -4 -31 -10 -35 -6 -4 -5 -15
2 -30 9 -19 7 -29 -6 -50 -16 -25 -20 -26 -99 -23 -81 3 -82 3 -79 28 l3 25
-17 -23 c-12 -18 -19 -21 -30 -11 -11 9 -14 8 -14 -5 0 -11 -9 -16 -27 -16
l-28 0 3 82 c4 113 8 123 45 95z m374 5 c13 -8 43 -120 43 -159 0 -18 -6 -23
-25 -23 -16 0 -25 6 -25 15 0 12 -38 23 -41 13 0 -2 -2 -23 -5 -48 -4 -31 -2
-41 5 -31 8 12 12 12 25 2 9 -7 13 -18 9 -24 -4 -6 -9 -3 -14 9 -7 17 -8 17
-8 1 -1 -10 -5 -15 -11 -12 -5 3 -10 0 -10 -7 0 -9 -3 -9 -8 -2 -4 6 -26 10
-49 9 -24 0 -39 3 -36 9 4 5 -5 6 -22 2 -23 -6 -26 -5 -17 6 9 11 87 18 87 8
0 -1 8 -3 18 -5 11 -2 16 -1 14 2 -3 3 -2 16 3 29 9 21 7 24 -16 24 -30 0 -29
8 7 105 27 74 48 95 76 77z m-130 -204 c-3 -8 -6 -5 -6 6 -1 11 2 17 5 13 3
-3 4 -12 1 -19z m-193 -41 c5 1 13 7 17 15 7 10 9 10 9 0 0 -7 5 -10 12 -6 6
4 8 3 5 -3 -4 -6 -20 -16 -37 -21 l-30 -11 1 42 c1 38 2 39 8 12 3 -16 10 -29
15 -28z m119 2 c-4 -14 -9 -17 -18 -9 -9 8 -15 8 -18 0 -3 -6 -4 -5 -2 2 1 7
8 12 15 10 7 -2 10 3 7 12 -4 10 -1 13 7 10 8 -3 12 -14 9 -25z m244 5 c7 -20
-26 -24 -36 -5 -9 15 -7 18 11 17 12 0 23 -6 25 -12z m-514 -121 c-7 -2 -19
-2 -25 0 -7 3 -2 5 12 5 14 0 19 -2 13 -5z m17 -23 c0 -5 8 -10 18 -10 10 0
27 -7 39 -15 14 -10 32 -13 48 -9 16 4 25 2 25 -6 0 -6 -4 -9 -8 -6 -4 2 -14
1 -22 -5 -11 -6 -12 -9 -2 -9 14 0 43 -60 48 -99 4 -29 -11 -60 -38 -82 -20
-15 -19 -16 12 -17 21 0 30 3 27 12 -3 6 1 20 8 30 13 17 14 17 24 -3 7 -12 8
-28 2 -43 -12 -33 4 -67 39 -79 16 -6 30 -15 30 -19 0 -4 7 -11 15 -14 10 -4
15 -1 13 9 -3 15 4 18 29 8 15 -6 15 -7 -2 -13 -15 -5 -12 -10 20 -29 21 -12
35 -25 31 -28 -3 -3 1 -11 10 -17 23 -17 9 -38 -52 -82 -31 -21 -70 -51 -87
-66 -17 -16 -37 -28 -44 -28 -7 0 -13 -4 -13 -10 0 -13 37 -13 45 -1 3 6 45
22 93 37 48 15 91 31 97 36 17 15 92 9 99 -8 11 -29 5 -32 -104 -48 -14 -3
-27 -5 -30 -6 -3 -1 -9 -2 -14 -1 -18 4 -45 -11 -50 -27 -6 -17 -36 -33 -98
-52 -43 -13 -94 36 -55 54 6 4 1 4 -13 0 -14 -3 -50 -10 -80 -15 -30 -5 -74
-17 -97 -26 -36 -13 -54 -14 -116 -5 -79 12 -188 56 -224 91 -24 23 -30 41
-14 41 6 0 8 23 6 50 -4 42 0 58 21 93 29 46 57 73 91 87 21 9 24 33 8 79 -4
9 1 12 15 8 11 -3 18 -1 14 4 -3 5 -27 9 -53 9 -26 0 -56 6 -66 14 -18 13 -17
15 21 50 43 40 39 48 -9 14 -29 -21 -30 -21 -24 -2 7 18 6 18 -7 2 -16 -22
-26 -23 -26 -3 0 8 -4 15 -10 15 -5 0 -10 5 -10 11 0 6 15 10 33 9 48 -3 77 9
70 28 -4 9 -2 13 4 9 6 -4 32 4 59 17 27 13 74 26 106 30 31 4 73 16 94 27 43
21 54 23 54 9z m382 -67 c-6 -2 -10 -9 -6 -14 3 -5 1 -9 -5 -9 -13 0 -22 15
-14 24 3 3 13 6 22 5 11 0 12 -2 3 -6z m-182 -18 c-27 -14 -36 -13 -25 4 3 6
16 11 28 11 21 -1 21 -1 -3 -15z m110 -4 c0 -18 -24 -30 -42 -20 -23 12 -23
26 0 31 20 5 42 -1 42 -11z m221 -7 c25 -5 30 -10 25 -27 -5 -22 -5 -22 14 1
21 25 32 29 24 7 -4 -8 -1 -15 5 -15 6 0 11 4 11 8 0 16 45 29 80 24 29 -4
103 -43 120 -63 3 -3 13 -8 23 -12 9 -4 16 -12 15 -19 -2 -7 2 -12 9 -13 20 0
27 -15 7 -15 -17 0 -16 -2 4 -16 12 -8 20 -20 17 -25 -15 -24 9 -28 46 -7 35
19 41 20 54 7 14 -13 14 -19 0 -46 -14 -28 -18 -30 -58 -26 -35 4 -56 -1 -105
-26 -81 -41 -138 -49 -193 -27 -22 9 -50 14 -61 10 -15 -4 -18 -3 -13 6 5 9 3
9 -11 2 -11 -5 -25 -7 -31 -5 -7 3 -13 0 -13 -6 0 -6 -9 -11 -20 -11 -31 0
-24 18 10 25 45 10 28 22 -58 41 -92 20 -126 36 -148 70 -10 14 -22 23 -28 20
-46 -19 -45 -19 -42 16 6 56 17 98 26 93 5 -3 11 -23 15 -45 4 -23 12 -40 20
-40 7 0 15 -6 18 -12 3 -7 12 3 20 22 15 33 75 90 95 90 5 0 15 7 22 15 9 11
23 14 42 10 15 -3 42 -8 59 -11z m279 -8 c0 -3 -4 -8 -10 -11 -5 -3 -10 -1
-10 4 0 6 5 11 10 11 6 0 10 -2 10 -4z m134 -17 c7 6 17 6 26 1 11 -7 11 -11
1 -24 -11 -13 -24 -15 -60 -10 -72 10 -80 19 -30 35 36 11 45 12 47 1 3 -9 7
-10 16 -3z m-1387 5 c-3 -3 -12 -4 -19 -1 -8 3 -5 6 6 6 11 1 17 -2 13 -5z
m1666 -11 c-7 -2 -19 -2 -25 0 -7 3 -2 5 12 5 14 0 19 -2 13 -5z m-1633 -33
c0 -5 -2 -10 -4 -10 -3 0 -8 5 -11 10 -3 6 -1 10 4 10 6 0 11 -4 11 -10z m707
-1 c17 -17 5 -43 -13 -28 -15 12 -19 39 -6 39 4 0 13 -5 19 -11z m583 -9 c0
-5 -5 -10 -11 -10 -5 0 -7 5 -4 10 3 6 8 10 11 10 2 0 4 -4 4 -10z m-1650 -34
c0 -2 -7 -7 -16 -10 -8 -3 -12 -2 -9 4 6 10 25 14 25 6z m330 -36 c6 0 8 5 5
10 -10 16 1 12 15 -6 12 -13 8 -15 -28 -13 -49 3 -61 -5 -44 -32 11 -18 9 -21
-25 -36 -21 -8 -59 -22 -85 -30 -43 -12 -50 -12 -73 3 -24 15 -24 17 -8 30 10
7 23 14 29 14 22 0 64 26 64 39 0 9 8 12 27 8 33 -6 55 1 46 16 -3 5 -1 7 5 3
6 -3 13 -2 17 4 4 7 12 7 25 0 10 -5 24 -10 30 -10z m136 -34 c-1 -14 -8 -31
-14 -39 -7 -8 -9 -17 -5 -20 3 -4 0 -7 -8 -7 -8 0 -20 5 -27 12 -8 8 -14 5
-21 -15 -8 -19 -15 -25 -27 -20 -15 6 -15 8 4 23 12 10 18 20 15 24 -8 7 29
36 84 65 1 1 0 -10 -1 -23z m564 -6 c0 -5 -7 -10 -15 -10 -8 0 -15 5 -15 10 0
6 7 10 15 10 8 0 15 -4 15 -10z m795 -30 c-3 -5 -14 -10 -23 -10 -15 0 -15 2
-2 10 20 13 33 13 25 0z m-1960 -10 c3 -6 -5 -10 -19 -10 -14 0 -28 5 -31 10
-3 6 5 10 19 10 14 0 28 -4 31 -10z m-15 -24 c0 -3 -4 -8 -10 -11 -5 -3 -10
-1 -10 4 0 6 5 11 10 11 6 0 10 -2 10 -4z m470 -28 c0 -35 -27 -140 -37 -147
-5 -3 -13 -15 -18 -26 -8 -18 -9 -17 -13 9 -2 18 5 48 18 74 13 24 24 58 26
76 1 17 3 32 3 34 1 1 6 2 11 2 6 0 10 -10 10 -22z m1439 9 c27 7 66 -16 52
-30 -16 -16 -14 -27 5 -27 8 0 12 -4 9 -10 -7 -12 -45 -13 -63 -2 -7 5 -14 17
-16 28 -3 10 -6 26 -9 34 -2 8 -2 12 0 9 2 -4 12 -5 22 -2z m-1856 -17 c3 -13
-1 -21 -13 -25 -13 -4 -16 -12 -12 -27 3 -14 1 -19 -6 -14 -7 4 -12 2 -12 -6
0 -9 -4 -8 -15 3 -12 12 -13 21 -5 40 10 23 10 23 5 -4 -4 -19 -2 -26 5 -22 5
3 10 19 10 35 0 25 9 36 31 39 4 1 9 -8 12 -19z m1253 -25 c-3 -9 -11 -13 -16
-10 -8 5 -7 11 1 21 14 18 24 11 15 -11z m-1182 -6 c-33 -13 -48 -11 -35 5 7
8 21 12 33 8 21 -5 21 -6 2 -13z m282 -46 c-11 -21 -15 -23 -16 -10 0 24 22
65 27 50 2 -6 -3 -24 -11 -40z m-100 28 c-9 -13 -66 -32 -66 -21 0 5 15 14 33
19 17 5 33 10 35 10 2 1 1 -3 -2 -8z m1024 -5 c0 -11 -19 -15 -25 -6 -3 5 1
10 9 10 9 0 16 -2 16 -4z m60 -41 c0 -7 -9 -22 -20 -35 -14 -16 -20 -19 -20
-8 0 8 3 18 7 22 14 14 11 35 -4 29 -13 -5 -13 -3 -1 16 12 20 14 20 26 4 6
-9 12 -22 12 -28z m367 39 c-3 -3 -12 -4 -19 -1 -8 3 -5 6 6 6 11 1 17 -2 13
-5z m168 -44 c-3 -4 2 -10 10 -14 8 -3 15 -10 15 -16 0 -19 -36 -10 -59 14
-21 22 -21 24 -4 28 23 5 44 -2 38 -12z m-417 3 c-10 -2 -28 -2 -40 0 -13 2
-5 4 17 4 22 1 32 -1 23 -4z m199 1 c-3 -3 -12 -4 -19 -1 -8 3 -5 6 6 6 11 1
17 -2 13 -5z m-1457 -13 c0 -10 -24 -21 -46 -21 -8 0 -25 -9 -37 -20 -12 -12
-23 -16 -25 -10 -2 5 -11 10 -20 10 -32 0 6 22 60 35 67 17 68 17 68 6z m84
-17 c9 -24 7 -36 -6 -28 -6 4 -17 -1 -23 -10 -10 -14 -14 -14 -18 -2 -5 13 21
56 34 56 4 0 10 -7 13 -16z m1235 2 c6 -8 11 -18 10 -22 -4 -25 3 -27 20 -5
15 20 21 21 38 11 16 -10 26 -10 54 3 47 22 84 19 110 -9 26 -28 22 -30 -17
-9 -33 17 -89 20 -79 5 3 -5 17 -10 31 -10 14 0 46 -10 72 -22 l47 -21 -35
-10 -35 -10 27 -11 c21 -9 25 -15 17 -23 -9 -9 -25 -7 -63 8 -37 14 -64 17
-98 13 l-48 -7 20 -27 c24 -34 25 -40 5 -40 -8 0 -15 9 -15 20 0 11 -3 20 -7
20 -5 0 -8 -14 -8 -31 0 -30 0 -30 45 -25 44 5 42 3 -10 -16 -20 -7 -22 -11
-10 -18 12 -8 10 -10 -7 -10 -29 0 -38 -16 -38 -69 0 -27 -5 -46 -12 -48 -7
-3 -13 3 -13 12 0 9 -5 13 -10 10 -6 -4 -8 -12 -4 -18 3 -7 -1 -4 -10 6 -17
22 -81 39 -115 30 -14 -4 -22 -2 -18 4 3 5 -4 9 -16 8 -25 -2 -47 4 -47 14 0
3 25 4 55 3 56 -4 68 5 40 28 -10 8 -33 11 -65 8 -27 -3 -54 0 -59 5 -24 24
-124 1 -171 -38 -23 -19 -60 -25 -60 -10 0 13 -38 28 -52 19 -4 -3 -8 -13 -8
-24 0 -13 -5 -17 -20 -13 -13 4 -20 0 -20 -9 0 -10 10 -13 35 -10 44 5 66 -3
59 -22 -4 -11 -11 -13 -31 -5 -24 9 -25 8 -19 -16 5 -20 3 -25 -14 -25 -11 0
-20 5 -20 10 0 6 -7 10 -16 10 -11 0 -14 -6 -9 -20 5 -14 2 -20 -10 -20 -10 0
-13 5 -9 12 4 7 3 8 -5 4 -6 -4 -23 0 -37 9 -14 9 -28 14 -31 11 -3 -3 -15 0
-26 6 -20 10 -20 11 -1 25 18 14 18 14 0 25 -14 8 -15 12 -6 18 8 5 -6 8 -33
8 -47 -1 -61 -11 -32 -22 8 -3 15 -10 15 -16 0 -6 -3 -9 -7 -7 -5 3 -14 -1
-20 -8 -10 -11 -8 -15 10 -18 l22 -4 -22 -8 c-13 -4 -20 -11 -17 -16 3 -5 1
-9 -5 -9 -5 0 -16 -3 -25 -6 -10 -4 -16 -1 -16 9 0 18 -26 30 -50 22 -9 -3
-27 4 -40 15 -13 11 -19 20 -14 20 6 0 15 -5 22 -12 8 -8 12 -9 12 -1 0 6 3
19 6 28 5 13 2 15 -18 10 -18 -5 -27 -2 -31 9 -4 10 -18 16 -38 16 l-32 0 28
22 c25 19 28 20 37 5 15 -27 81 -20 188 20 8 3 23 8 32 9 9 2 43 15 75 30 32
14 81 28 110 30 45 3 53 1 58 -16 8 -25 26 -25 90 -1 77 29 197 63 230 65 52
4 73 15 68 36 -4 15 0 20 13 20 16 1 15 3 -6 15 -19 11 -21 14 -7 15 9 0 17 3
17 8 0 13 57 33 75 26 13 -5 16 -3 13 7 -3 8 -15 13 -29 12 -22 -2 -22 -2 -4
6 28 13 31 13 44 -3z m-1313 -60 c-9 -14 -16 -32 -16 -40 0 -8 -10 -25 -22
-37 -22 -21 -22 -21 -2 -10 17 8 25 7 34 -4 13 -16 51 -20 64 -8 4 4 21 8 38
9 33 2 82 47 100 93 10 26 10 26 25 -16 13 -37 19 -43 43 -43 24 0 31 -6 41
-35 7 -19 16 -35 21 -35 4 0 5 -7 2 -15 -4 -8 -18 -15 -32 -15 -24 0 -25 -1
-7 -14 18 -13 18 -14 -1 -19 -10 -3 -36 -8 -56 -12 -44 -7 -49 -22 -12 -31 16
-4 23 -11 20 -21 -4 -8 3 -17 17 -23 22 -9 22 -9 -3 -9 -40 1 -86 32 -82 57 4
24 -22 31 -32 10 -7 -17 -38 22 -32 39 3 7 1 13 -5 13 -20 0 -49 -21 -49 -36
0 -8 -4 -13 -9 -10 -5 4 -12 0 -14 -6 -4 -8 -6 -7 -6 4 -1 9 5 19 12 22 6 3
-1 4 -18 2 -20 -2 -37 4 -50 17 -20 19 -20 19 5 12 l25 -7 -22 16 c-19 14 -26
15 -43 4 -18 -11 -23 -10 -40 12 -10 13 -15 29 -12 35 4 5 7 12 7 15 4 26 20
49 38 54 18 5 19 8 7 15 -11 8 -5 14 30 30 24 11 46 18 49 16 2 -3 -4 -16 -13
-29z m34 -22 c0 -8 -19 -13 -24 -6 -3 5 1 9 9 9 8 0 15 -2 15 -3z m379 -110
c34 -7 41 -20 14 -27 -14 -3 -11 -6 9 -11 15 -4 29 -15 33 -24 5 -14 4 -14 -6
-5 -8 8 -16 9 -24 3 -9 -7 -16 -5 -25 5 -7 8 -19 15 -27 15 -8 0 -11 5 -8 10
4 7 -3 8 -21 4 -27 -7 -27 -7 -8 14 22 24 22 24 63 16z m1102 -27 c-10 -9 -11
-8 -5 6 3 10 9 15 12 12 3 -3 0 -11 -7 -18z m-963 4 c17 -10 -41 -36 -63 -27
-22 8 -18 24 8 29 37 7 41 7 55 -2z m-819 -131 c1 8 8 0 16 -19 18 -39 18 -44
5 -36 -5 3 -10 1 -10 -6 0 -7 -13 7 -30 29 -34 47 -35 54 -17 82 11 19 13 17
24 -22 6 -24 12 -36 12 -28z m1327 48 c5 -7 2 -9 -8 -5 -12 4 -15 0 -11 -16 5
-17 3 -20 -7 -10 -14 12 -7 43 9 43 5 0 13 -5 17 -12z m-962 -5 c4 -5 12 -9
17 -9 5 -1 14 -2 19 -3 6 0 10 -5 10 -10 0 -12 -57 6 -66 20 -6 11 10 12 20 2z
m1648 -43 c10 0 18 5 18 11 0 5 5 7 11 4 6 -5 4 -12 -8 -21 -16 -13 -16 -14 0
-8 25 9 23 -32 -3 -46 -20 -11 -21 -11 -24 33 -1 6 -9 15 -18 19 -10 4 -18 13
-18 20 0 9 3 9 12 0 7 -7 20 -12 30 -12z m-68 -26 c4 -13 13 -24 21 -24 11 0
15 -10 14 -32 -1 -24 -3 -27 -6 -10 -2 12 -9 22 -15 22 -5 0 -8 -7 -4 -15 8
-23 -4 -45 -26 -45 -12 0 -17 -4 -12 -12 4 -7 4 -10 -1 -6 -4 4 -15 2 -23 -5
-11 -8 -14 -8 -9 0 8 13 -18 12 -30 -2 -4 -4 -2 -5 5 -1 6 4 12 2 12 -4 0 -7
-8 -9 -19 -5 -11 3 -24 -1 -32 -11 -18 -22 -87 -53 -116 -54 -13 0 -23 -6 -23
-12 0 -10 -3 -9 -9 1 -6 9 -11 10 -15 2 -4 -6 -12 -9 -17 -6 -5 4 -9 1 -9 -6
0 -7 -3 -9 -7 -6 -3 4 8 20 25 36 30 26 31 29 15 42 -15 12 -16 12 -8 -1 4 -8
4 -12 0 -7 -5 4 -10 18 -12 30 -2 12 -8 24 -13 25 -6 2 -10 10 -10 19 0 9 6
12 19 8 21 -6 38 21 18 28 -7 3 4 5 23 5 19 0 53 3 75 8 38 7 39 6 25 -11 -10
-13 -11 -16 -2 -11 9 5 23 -2 40 -21 15 -17 34 -28 44 -25 16 3 15 6 -5 35
-12 18 -25 34 -29 35 -14 7 -8 24 6 19 9 -4 16 3 20 17 5 19 11 22 31 18 14
-2 25 0 25 7 0 20 28 0 34 -25z m-1022 -56 c-7 -7 -17 -6 -32 5 -15 10 -18 16
-8 20 20 7 52 -13 40 -25z m-743 -17 c13 -8 40 -73 41 -95 0 -5 -8 -2 -18 7
-10 10 -23 17 -29 17 -14 0 -39 31 -47 58 -6 18 -4 22 16 22 13 0 29 -4 37 -9z
m159 -46 c1 -1 4 -11 6 -21 2 -11 7 -31 11 -46 l7 -27 -39 12 c-21 6 -47 17
-58 24 -19 13 -19 13 3 13 27 0 29 16 2 25 -11 3 -20 13 -20 22 0 12 8 13 43
8 23 -4 43 -8 45 -10z m1006 -10 c4 -11 -1 -15 -19 -15 -14 0 -25 5 -25 11 0
6 7 9 15 5 8 -3 15 -1 15 4 0 15 7 12 14 -5z m146 5 c0 -5 -5 -10 -11 -10 -5
0 -7 5 -4 10 3 6 8 10 11 10 2 0 4 -4 4 -10z m-109 -13 c-1 -12 -15 -9 -19 4
-3 6 1 10 8 8 6 -3 11 -8 11 -12z m-907 -9 c3 -7 7 -32 9 -55 5 -39 3 -43 -17
-43 -12 0 -32 9 -44 20 -13 12 -22 16 -22 8 0 -6 -7 -3 -15 8 -14 19 -20 56
-10 66 12 11 96 8 99 -4z m796 -43 c0 -7 7 -16 15 -19 13 -5 14 -10 4 -28 -6
-13 -8 -20 -4 -16 5 4 13 4 19 -1 6 -5 20 -5 31 -1 19 8 19 8 -5 18 -24 10
-24 11 8 8 17 -1 35 -6 40 -11 4 -5 1 -5 -5 -1 -7 4 -13 2 -13 -3 0 -6 7 -11
15 -11 8 0 15 -8 15 -17 0 -15 -2 -16 -10 -3 -7 11 -10 11 -10 2 0 -8 -5 -10
-12 -6 -8 5 -9 2 -5 -9 5 -13 1 -16 -23 -13 -16 2 -27 -1 -24 -5 3 -5 -4 -9
-15 -9 -13 0 -21 7 -21 18 0 15 -2 15 -11 2 -9 -12 -12 -13 -16 -1 -4 11 -7
11 -13 1 -8 -13 -18 -14 -182 -5 -101 5 -114 9 -124 47 -5 17 -16 33 -24 35
-13 4 -13 3 -1 -5 8 -6 12 -19 8 -30 -2 -12 0 -23 7 -25 7 -3 3 -13 -10 -27
-18 -18 -25 -20 -42 -11 -11 6 -34 11 -50 11 -16 0 -35 7 -42 15 -10 12 -10
15 1 15 19 0 -4 21 -26 24 -13 2 -19 13 -21 34 -1 18 2 30 7 27 5 -4 6 2 2 11
-6 15 3 16 98 11 57 -2 142 -1 189 5 47 5 114 13 150 17 57 7 67 5 83 -12 9
-11 17 -25 17 -32z m-573 22 c7 -8 13 -78 6 -74 -5 3 -15 2 -23 -4 -13 -7 -12
-9 3 -9 19 0 21 -8 8 -29 -8 -12 -14 -12 -40 -1 -17 7 -31 16 -31 21 0 5 -11
9 -25 9 -14 0 -25 5 -25 11 0 6 -7 9 -15 5 -8 -3 -21 4 -30 17 -19 27 -19 32
-1 50 11 10 34 13 92 10 43 -2 79 -5 81 -6z m43 -129 c0 -3 -9 -4 -20 -1 -23
6 -22 5 -14 27 6 15 8 15 20 -1 7 -10 14 -21 14 -25z m1186 -33 c4 -15 1 -32
-6 -40 -12 -14 -15 -14 -30 0 -9 8 -22 15 -29 15 -7 0 -9 5 -5 13 5 8 2 7 -9
-2 -15 -12 -17 -12 -11 3 5 13 2 15 -12 9 -17 -6 -17 -5 1 14 38 40 89 33 101
-12z m-122 -21 c5 -12 2 -15 -11 -10 -10 4 -4 -5 12 -19 22 -19 37 -24 59 -20
16 3 27 2 23 -1 -3 -4 -27 -10 -52 -15 -59 -11 -137 5 -162 33 -16 20 -17 21
0 15 9 -4 17 -3 17 1 0 4 12 8 27 9 15 0 29 6 31 12 6 17 49 13 56 -5z m-1365
-29 c8 -4 4 -15 -14 -31 -28 -26 -41 -31 -29 -12 5 7 2 9 -7 6 -8 -3 -25 -8
-39 -12 -17 -4 -15 -1 8 9 17 8 32 20 32 26 0 5 -4 7 -10 4 -14 -8 -32 4 -24
16 6 11 63 7 83 -6z m1426 -5 c-3 -5 -12 -10 -18 -10 -7 0 -6 4 3 10 19 12 23
12 15 0z m-1035 -70 c32 -7 30 -8 -20 -9 -30 0 -66 6 -80 14 -24 13 -23 13 20
8 25 -3 61 -9 80 -13z"/>
<path d="M805 1919 c-4 -6 -5 -13 -2 -16 7 -7 27 6 27 18 0 12 -17 12 -25 -2z"/>
<path d="M800 1845 c0 -9 6 -12 15 -9 8 4 15 10 15 15 0 5 -7 9 -15 9 -8 0
-15 -7 -15 -15z"/>
<path d="M954 1926 c-11 -28 -10 -81 1 -84 15 -5 30 77 17 90 -8 8 -13 7 -18
-6z"/>
<path d="M1260 1915 c0 -9 6 -12 15 -9 8 4 15 10 15 15 0 5 -7 9 -15 9 -8 0
-15 -7 -15 -15z"/>
<path d="M1260 1844 c0 -8 5 -12 10 -9 6 3 10 10 10 16 0 5 -4 9 -10 9 -5 0
-10 -7 -10 -16z"/>
<path d="M1431 1884 c0 -11 3 -14 6 -6 3 7 2 16 -1 19 -3 4 -6 -2 -5 -13z"/>
<path d="M1470 1729 c0 -5 5 -7 10 -4 6 3 10 8 10 11 0 2 -4 4 -10 4 -5 0 -10
-5 -10 -11z"/>
<path d="M757 1499 c8 -8 16 -8 30 0 16 9 14 10 -11 11 -22 0 -27 -3 -19 -11z"/>
<path d="M920 1338 c-19 -5 -58 -8 -87 -6 -50 4 -51 4 -40 -16 6 -12 10 -25 9
-30 -2 -5 4 -6 13 -2 15 5 116 24 160 29 20 2 35 15 35 30 0 10 -47 7 -90 -5z"/>
<path d="M1020 1330 c0 -5 7 -10 16 -10 8 0 12 5 9 10 -3 6 -10 10 -16 10 -5
0 -9 -4 -9 -10z"/>
<path d="M820 1160 c14 -11 29 -20 33 -20 13 0 -16 25 -38 33 -16 6 -15 3 5
-13z"/>
<path d="M1633 1461 c10 -4 18 -10 18 -14 -1 -4 8 -16 19 -27 11 -11 20 -16
20 -12 0 4 -5 13 -12 20 -7 7 -8 12 -3 12 5 0 0 7 -11 15 -10 8 -26 14 -34 14
-11 0 -10 -3 3 -8z"/>
<path d="M111 1204 c0 -11 3 -14 6 -6 3 7 2 16 -1 19 -3 4 -6 -2 -5 -13z"/>
<path d="M1595 1020 c-16 -7 -17 -9 -3 -9 9 -1 20 4 23 9 7 11 7 11 -20 0z"/>
<path d="M1620 851 c0 -18 17 -20 36 -6 18 14 18 14 -8 15 -16 0 -28 -4 -28
-9z"/>
<path d="M1596 798 c9 -31 14 -35 24 -19 11 18 2 41 -17 41 -10 0 -12 -6 -7
-22z"/>
<path d="M918 798 c5 -5 16 -8 23 -6 8 3 3 7 -10 11 -17 4 -21 3 -13 -5z"/>
<path d="M880 790 c0 -5 5 -10 10 -10 6 0 10 5 10 10 0 6 -4 10 -10 10 -5 0
-10 -4 -10 -10z"/>
<path d="M960 750 c0 -5 5 -10 10 -10 6 0 10 5 10 10 0 6 -4 10 -10 10 -5 0
-10 -4 -10 -10z"/>
<path d="M246 913 c-9 -24 9 -39 29 -23 8 7 15 18 15 24 0 6 -8 2 -16 -9 -16
-20 -16 -20 -9 3 7 25 -10 31 -19 5z"/>
<path d="M885 440 c3 -5 13 -10 21 -10 8 0 14 5 14 10 0 6 -9 10 -21 10 -11 0
-17 -4 -14 -10z"/>
<path d="M1786 341 c-4 -5 3 -7 14 -4 23 6 26 13 6 13 -8 0 -17 -4 -20 -9z"/>
<path d="M1535 2236 c27 -18 222 -129 265 -151 50 -25 30 -8 -99 84 -91 65
-121 81 -150 81 -33 0 -34 -1 -16 -14z"/>
<path d="M1741 2187 c57 -35 170 -106 250 -158 80 -52 155 -99 165 -106 36
-23 -110 39 -208 88 -54 27 -98 48 -98 46 0 -2 26 -21 58 -43 105 -71 226
-168 284 -227 l58 -58 0 125 c0 120 -1 126 -22 137 -23 12 -23 12 -4 -10 34
-38 10 -32 -65 17 -106 69 -110 70 -51 17 56 -50 63 -68 15 -38 -49 31 -347
236 -358 246 -16 15 161 -81 223 -121 12 -8 22 -12 22 -10 0 5 -41 32 -183
122 -51 32 -65 36 -123 36 l-67 0 104 -63z"/>
<path d="M1866 2242 c18 -16 144 -92 144 -87 0 10 -124 95 -139 95 -9 0 -11
-3 -5 -8z"/>
<path d="M1941 2246 c2 -2 36 -21 74 -43 39 -22 88 -51 109 -64 22 -13 36 -17
31 -9 -4 7 3 5 17 -6 14 -10 23 -23 21 -29 -3 -5 0 -5 7 2 17 16 0 38 -79 102
-40 32 -74 51 -90 51 -23 0 -21 -3 23 -35 27 -19 47 -35 43 -35 -4 0 -31 16
-61 35 -30 19 -65 35 -77 35 -12 0 -20 -2 -18 -4z m190 -93 c13 -16 12 -17 -3
-4 -10 7 -18 15 -18 17 0 8 8 3 21 -13z"/>
<path d="M2152 2213 c23 -21 54 -56 70 -77 l28 -39 0 56 c0 52 -2 57 -34 76
-18 12 -50 21 -70 21 l-36 0 42 -37z"/>
<path d="M2130 2062 c25 -23 49 -41 53 -42 4 0 -7 12 -25 28 -57 48 -75 57
-28 14z"/>
<path d="M2227 2069 c7 -7 15 -10 18 -7 3 3 -2 9 -12 12 -14 6 -15 5 -6 -5z"/>
<path d="M120 1330 c-13 -8 -13 -10 2 -10 9 0 20 5 23 10 8 13 -5 13 -25 0z"/>
<path d="M2216 494 c-16 -11 -22 -11 -28 -1 -7 9 -8 8 -6 -3 3 -17 -19 -61
-36 -72 -7 -5 -6 -8 4 -8 19 0 26 -50 7 -50 -7 0 -4 -5 5 -11 9 -5 15 -16 12
-24 -5 -12 -1 -12 19 -2 14 6 23 15 21 19 -3 4 2 5 10 2 9 -3 14 -10 11 -14
-3 -5 -1 -11 5 -15 6 -4 10 21 10 70 0 52 -3 74 -11 70 -6 -4 -5 2 3 14 17 28
0 45 -26 25z m24 -68 c0 -2 -7 -7 -16 -10 -8 -3 -12 -2 -9 4 6 10 25 14 25 6z
m-40 -73 c0 -19 -13 -9 -16 12 -1 8 2 13 7 9 5 -3 9 -12 9 -21z"/>
<path d="M2 407 c2 -45 33 -87 64 -87 10 0 15 -3 11 -6 -6 -7 110 -103 203
-167 30 -21 77 -54 104 -73 26 -19 52 -32 56 -29 5 3 11 1 15 -5 4 -6 11 -8
16 -5 5 3 6 -2 2 -11 -5 -14 -2 -16 15 -12 11 3 23 1 24 -4 2 -5 13 -8 25 -6
18 2 2 18 -80 79 -56 42 -104 75 -106 73 -3 -3 1 -10 7 -16 7 -7 12 -16 12
-21 0 -4 -11 4 -25 19 -28 30 -31 39 -12 29 6 -4 -15 19 -48 50 -33 31 -73 63
-90 72 -16 9 -33 21 -37 27 -4 6 -8 7 -8 1 0 -5 10 -18 23 -30 13 -11 17 -16
10 -11 -7 5 -13 6 -13 2 0 -3 -9 3 -20 14 -12 12 -18 25 -15 30 4 6 0 10 -6
10 -18 0 -80 72 -74 87 2 6 -9 16 -26 22 l-29 10 2 -42z m304 -241 c3 -22 -1
-20 -21 10 -16 25 -16 25 1 16 10 -5 19 -17 20 -26z"/>
<path d="M315 340 c-3 -6 1 -7 9 -4 18 7 21 14 7 14 -6 0 -13 -4 -16 -10z"/>
<path d="M2120 320 c-13 -8 -12 -10 3 -10 9 0 17 5 17 10 0 12 -1 12 -20 0z"/>
<path d="M285 310 c-7 -12 2 -12 30 0 19 8 19 9 -2 9 -12 1 -25 -3 -28 -9z"/>
<path d="M2212 300 c13 -21 38 -35 38 -21 0 9 -33 41 -43 41 -4 0 -2 -9 5 -20z"/>
<path d="M0 274 c0 -27 8 -33 108 -82 59 -28 98 -45 87 -37 -11 9 -54 41 -95
72 -41 30 -81 60 -87 66 -10 7 -13 2 -13 -19z"/>
<path d="M2165 270 c3 -5 8 -10 11 -10 2 0 4 5 4 10 0 6 -5 10 -11 10 -5 0 -7
-4 -4 -10z"/>
<path d="M2206 261 c-4 -6 -2 -11 3 -11 6 0 11 -10 11 -21 0 -18 -2 -19 -15
-9 -13 11 -14 6 -10 -34 2 -26 8 -52 11 -58 4 -6 3 -8 -3 -5 -10 6 -60 -52
-56 -65 1 -3 -4 -11 -12 -18 -28 -24 -6 -40 56 -40 l59 0 0 66 c0 41 -4 63
-10 59 -6 -4 -7 -11 -4 -17 5 -7 2 -8 -5 -4 -7 5 -10 14 -7 21 2 7 0 18 -5 24
-6 8 -5 8 3 1 23 -19 29 -10 27 40 -2 27 -5 47 -8 45 -3 -3 -10 4 -17 16 -7
14 -14 18 -18 10z m-25 -233 c-11 -11 -13 -10 -7 0 4 7 2 21 -5 30 -12 15 -11
15 6 0 16 -15 17 -20 6 -30z"/>
<path d="M2116 232 c-4 -7 -13 -9 -19 -6 -8 5 -8 3 1 -7 14 -15 16 -33 2 -24
-12 8 -47 -11 -84 -46 -29 -26 -29 -28 -13 -53 16 -24 55 -28 40 -3 -3 6 -1 7
5 3 6 -3 15 2 21 11 10 17 10 17 11 1 0 -10 -4 -18 -10 -18 -5 0 -10 -4 -10
-9 0 -15 83 14 95 34 7 11 16 35 20 53 5 24 3 32 -8 32 -8 0 -21 10 -29 22
-10 15 -17 18 -22 10z m41 -78 c0 -8 -5 -13 -11 -12 -6 1 -26 -2 -44 -6 -43
-10 -51 -2 -16 17 35 18 71 19 71 1z"/>
<path d="M0 202 c0 -13 25 -33 154 -121 95 -64 127 -81 155 -81 l36 0 -26 13
c-14 8 -88 55 -166 105 -140 92 -153 99 -153 84z"/>
<path d="M1548 166 c-33 -7 -68 -22 -82 -35 -52 -49 -68 -131 -26 -131 13 0
19 11 23 42 9 64 61 98 152 99 91 2 175 -52 175 -112 0 -24 4 -29 25 -29 20 0
25 5 25 24 0 39 -42 89 -100 118 -69 33 -119 39 -192 24z"/>
<path d="M425 159 c-4 -5 5 -21 18 -33 23 -21 30 -23 70 -14 82 17 187 -34
187 -91 0 -14 6 -21 20 -21 28 0 27 49 -2 85 -29 37 -79 57 -165 64 -57 5 -73
3 -82 -9 -7 -8 -9 -10 -6 -4 2 7 -3 11 -13 10 -9 0 -16 5 -14 12 3 15 -4 16
-13 1z"/>
<path d="M1035 148 c-61 -21 -114 -73 -130 -125 -5 -19 -3 -23 17 -23 18 0 27
8 36 34 19 51 37 63 65 40 l22 -19 -18 22 c-18 21 -18 22 5 34 13 7 55 13 96
13 50 -1 72 3 72 11 0 25 -107 33 -165 13z"/>
<path d="M1540 106 c0 -11 -5 -14 -12 -10 -7 4 -8 3 -4 -4 5 -9 13 -9 26 -2
10 5 22 10 27 10 4 -1 -5 -8 -22 -17 -24 -14 -26 -18 -12 -21 9 -2 17 -9 17
-17 0 -8 7 -11 20 -8 11 3 32 -3 47 -13 16 -10 42 -20 58 -21 20 -2 26 0 16 6
-7 5 -11 13 -8 19 10 15 -28 43 -49 36 -14 -4 -16 -3 -5 4 11 8 9 13 -11 26
-13 9 -38 19 -56 22 -26 5 -32 3 -32 -10z m135 -66 c3 -5 1 -10 -4 -10 -6 0
-11 5 -11 10 0 6 2 10 4 10 3 0 8 -4 11 -10z"/>
<path d="M490 90 c0 -12 35 -31 44 -23 3 3 6 0 7 -8 0 -15 57 -64 65 -57 8 9
-82 98 -99 98 -10 0 -17 -4 -17 -10z"/>
<path d="M1040 84 c0 -11 6 -14 23 -9 16 4 14 1 -8 -12 -23 -13 -26 -18 -13
-21 11 -2 15 -9 11 -19 -5 -13 -1 -15 20 -9 16 4 27 2 27 -4 0 -5 11 -10 25
-10 17 0 25 6 25 17 0 15 2 14 14 -3 8 -10 17 -17 20 -14 3 3 -7 20 -21 38
-19 25 -30 31 -45 26 -15 -4 -18 -3 -13 6 9 15 -12 30 -42 30 -14 0 -23 -6
-23 -16z"/>
<path d="M348 51 c18 -17 39 -31 47 -31 8 0 15 -4 15 -10 0 -5 4 -10 10 -10
23 0 -4 27 -53 53 l-52 29 33 -31z"/>
<path d="M1990 66 c0 -8 -3 -22 -7 -32 -4 -12 -3 -15 5 -10 7 4 15 1 18 -8 4
-11 20 -15 60 -15 30 1 54 5 54 11 0 5 -9 7 -19 3 -11 -3 -23 0 -27 6 -4 7 -3
9 3 6 6 -4 16 0 23 8 9 10 9 15 1 15 -6 0 -11 -4 -11 -8 0 -16 -40 -6 -65 16
-29 26 -35 27 -35 8z"/>
<path d="M120 59 c26 -18 70 -40 70 -35 0 6 -66 46 -76 46 -5 0 -2 -5 6 -11z"/>
<path d="M2120 49 c0 -5 5 -7 10 -4 6 3 10 8 10 11 0 2 -4 4 -10 4 -5 0 -10
-5 -10 -11z"/>
<path d="M7 9 c7 -7 15 -10 18 -7 3 3 -2 9 -12 12 -14 6 -15 5 -6 -5z"/>
<path d="M207 9 c7 -7 15 -10 18 -7 3 3 -2 9 -12 12 -14 6 -15 5 -6 -5z"/>
<path d="M1560 9 c0 -5 5 -7 10 -4 6 3 10 8 10 11 0 2 -4 4 -10 4 -5 0 -10 -5
-10 -11z"/>
</g>
</svg>
