<?xml version="1.0" standalone="no"?>
<!DOCTYPE svg PUBLIC "-//W3C//DTD SVG 20010904//EN"
 "http://www.w3.org/TR/2001/REC-SVG-20010904/DTD/svg10.dtd">
<svg version="1.0" xmlns="http://www.w3.org/2000/svg"
 width="550.000000pt" height="366.000000pt" viewBox="0 0 550.000000 366.000000"
 preserveAspectRatio="xMidYMid meet">

<g transform="translate(0.000000,366.000000) scale(0.100000,-0.100000)"
fill="#000000" stroke="none">
<path d="M0 3226 l0 -433 93 -12 c50 -6 146 -20 212 -31 485 -77 667 -108 673
-114 2 -2 6 -165 9 -361 l6 -357 26 -10 c14 -6 34 -14 43 -19 26 -13 94 -11
105 4 6 7 7 193 4 493 -3 265 -5 488 -3 497 6 28 19 20 43 -25 23 -43 23 -45
27 -513 2 -267 8 -475 13 -481 6 -8 4 -14 -6 -18 -9 -3 -14 -10 -10 -15 3 -6
-8 -8 -27 -6 -49 6 -159 -12 -176 -29 -14 -13 -12 -16 11 -27 15 -7 36 -8 54
-4 15 5 36 7 45 6 9 -1 32 6 50 16 18 9 36 16 40 15 19 -5 142 18 148 27 4 7
27 8 66 3 l59 -7 3 -105 c2 -58 6 -108 10 -112 4 -4 36 0 72 9 68 17 193 23
206 10 4 -4 8 -15 9 -25 1 -23 14 -42 26 -42 6 0 8 4 5 8 -3 5 1 9 9 9 9 0 15
-10 15 -22 0 -19 -5 -22 -31 -19 -29 4 -31 2 -25 -22 6 -24 5 -26 -19 -20 -14
4 -34 2 -44 -4 -11 -5 -27 -7 -37 -3 -16 6 -16 7 2 14 16 6 16 8 2 8 -9 1 -20
-4 -23 -9 -4 -6 -11 -8 -16 -5 -5 4 -9 1 -9 -5 0 -7 -7 -10 -15 -6 -8 3 -15 1
-15 -3 0 -5 -9 -7 -19 -4 -11 3 -29 -2 -41 -10 -20 -14 -15 -15 57 -11 67 3
73 2 43 -7 -19 -6 -38 -16 -42 -22 -6 -9 -8 -9 -8 1 0 6 -5 12 -11 12 -5 0 -7
-5 -3 -12 5 -8 2 -9 -11 -5 -9 4 -24 2 -31 -4 -15 -12 -115 -19 -108 -7 3 4
-17 1 -43 -7 -26 -7 -59 -16 -73 -18 -16 -3 -9 -5 18 -6 23 0 42 -6 42 -12 0
-6 8 -8 20 -4 10 3 27 2 37 -3 10 -5 27 -6 38 -2 11 4 33 2 49 -5 19 -8 41 -9
68 -3 22 4 44 6 49 2 6 -3 17 2 24 12 12 15 16 16 24 5 6 -9 11 -10 15 -2 8
12 46 15 46 4 0 -5 18 -8 41 -9 35 -1 40 2 35 18 -21 65 -21 64 -2 49 9 -8 18
-12 19 -10 1 2 9 13 17 24 15 20 14 20 -8 1 -12 -11 -22 -14 -22 -8 0 7 -10
12 -22 12 l-21 0 23 25 c26 28 50 33 50 11 0 -8 5 -16 11 -18 9 -3 9 -13 0
-39 -16 -48 -6 -72 27 -64 13 3 31 13 39 20 8 8 24 15 35 15 14 0 18 5 14 16
-3 9 -6 22 -6 30 0 7 -11 16 -25 20 -14 3 -25 10 -25 15 0 5 -6 9 -13 9 -7 0
-13 9 -14 20 -1 16 2 18 24 9 14 -5 34 -7 44 -4 12 4 21 1 25 -9 3 -9 10 -14
14 -11 5 3 11 2 14 -3 7 -12 86 -14 86 -2 0 5 -8 10 -19 10 -10 0 -24 7 -31
15 -7 8 -22 16 -34 16 -18 1 -18 2 -3 6 10 3 28 -4 39 -14 16 -13 22 -15 25
-5 4 10 8 10 20 1 12 -10 16 -10 24 2 7 11 13 10 29 -11 11 -14 20 -21 20 -16
0 5 6 3 14 -3 20 -17 17 -60 -6 -72 -13 -7 -17 -16 -13 -27 5 -13 4 -14 -6 -5
-10 10 -9 16 1 28 12 14 10 16 -16 13 -20 -2 -29 1 -29 12 0 8 -11 18 -25 21
-39 10 -100 10 -100 0 0 -5 -3 -17 -7 -27 -4 -12 -3 -15 5 -10 7 4 12 2 12 -3
0 -6 6 -11 14 -11 8 0 22 -7 31 -16 15 -15 17 -15 22 5 3 11 8 21 11 21 7 0
31 -34 32 -45 0 -5 -4 -4 -9 4 -5 7 -14 10 -20 6 -9 -5 -9 -10 -1 -20 7 -8 9
-18 6 -23 -9 -15 53 -23 74 -10 14 9 25 9 44 0 21 -9 26 -9 26 2 0 7 -12 18
-27 25 -24 11 -25 14 -11 22 10 6 26 4 44 -6 17 -9 40 -13 57 -9 17 4 27 1 27
-6 0 -7 -7 -10 -15 -7 -8 4 -17 1 -21 -5 -4 -7 -3 -8 4 -4 7 4 12 2 12 -4 0
-7 6 -10 14 -7 20 8 28 -19 11 -33 -8 -6 -22 -11 -32 -10 -40 5 -62 -1 -97
-25 -34 -23 -39 -24 -64 -10 -15 8 -21 14 -14 15 8 0 12 7 10 16 -2 8 -6 14
-10 12 -3 -2 -17 7 -31 20 -25 24 -57 21 -57 -5 0 -8 5 -11 10 -8 6 3 10 -5
10 -19 0 -31 -16 -42 -35 -22 -11 11 -12 16 -2 19 9 3 8 9 -5 22 -16 17 -16
16 -14 -19 4 -46 7 -49 56 -49 22 0 43 -4 46 -8 7 -12 71 -11 79 1 3 6 28 10
55 10 61 0 142 21 136 35 -2 5 -9 9 -15 8 -14 -4 -15 24 -1 32 5 3 19 0 29 -7
21 -15 91 -12 91 2 0 5 -10 17 -23 27 -13 10 -22 24 -19 32 3 10 -1 12 -15 9
-11 -3 -28 1 -38 8 -11 8 -13 14 -6 14 7 0 10 4 7 9 -3 5 -23 7 -45 4 -41 -6
-62 10 -42 30 9 9 14 8 22 -3 8 -13 12 -12 26 8 19 28 72 31 74 5 1 -10 2 -24
3 -32 0 -8 10 -19 21 -25 11 -6 23 -15 27 -21 4 -5 10 -6 14 -2 4 4 2 13 -4
19 -16 16 -15 38 2 38 20 0 40 -28 41 -58 0 -24 5 -27 38 -30 21 -2 37 1 37 7
0 6 18 11 40 11 27 0 43 5 46 15 4 9 19 15 35 15 17 0 32 6 35 15 4 8 14 15
23 15 13 1 12 3 -4 12 -11 7 -32 11 -47 9 -35 -3 -36 16 -3 31 15 7 24 17 20
25 -3 7 -8 20 -11 28 -3 8 -1 15 6 15 23 0 50 -21 50 -39 0 -11 7 -22 15 -25
12 -4 14 -10 5 -25 -5 -11 -10 -22 -10 -25 0 -11 19 -6 33 9 16 15 135 24 156
11 6 -4 11 -2 11 3 0 6 -4 11 -10 11 -5 0 -10 5 -10 11 0 5 8 9 18 8 39 -4 52
2 52 21 0 11 -6 23 -14 26 -13 5 -31 49 -28 67 1 4 -3 7 -9 7 -8 0 -8 5 1 15
14 17 42 2 34 -19 -9 -23 21 -46 72 -55 35 -5 56 -4 68 4 8 7 13 15 9 18 -3 4
-1 7 6 7 9 0 11 -8 7 -26 l-7 -26 23 25 c17 18 30 24 50 20 17 -3 32 1 45 14
23 23 72 39 143 48 30 4 65 16 78 25 22 18 20 18 -88 17 -60 -1 -110 -5 -110
-9 0 -3 7 -8 15 -10 11 -2 12 -7 4 -18 -8 -11 -12 -12 -16 -2 -2 6 -10 9 -15
6 -6 -4 -17 1 -25 11 -10 14 -13 15 -14 4 -1 -8 -1 -18 0 -23 3 -15 -23 -26
-31 -13 -6 9 -10 9 -16 -1 -5 -7 -22 -13 -38 -12 -16 1 -46 2 -67 3 l-37 2 25
18 c24 18 34 47 16 47 -4 0 -6 12 -3 26 3 17 9 23 19 20 9 -4 11 -2 7 6 -5 8
-2 9 10 5 10 -4 20 -7 22 -7 2 0 4 -4 4 -10 0 -5 -7 -10 -15 -10 -8 0 -15 -4
-15 -9 0 -15 52 -61 69 -61 10 0 5 7 -14 21 -16 12 -22 19 -12 15 9 -3 17 -2
17 3 0 5 6 9 13 8 6 0 27 1 45 1 30 2 32 4 22 23 -9 16 -9 28 1 50 14 35 33
33 37 -4 4 -30 35 -43 77 -33 21 5 25 3 25 -16 1 -22 1 -22 15 -4 11 14 12 23
4 33 -8 9 -7 14 4 19 9 3 20 3 25 0 19 -12 82 -17 82 -7 0 5 -5 13 -11 17 -13
8 33 51 69 65 23 9 22 10 -24 50 -40 35 -44 40 -23 38 13 -2 30 0 37 5 9 5 20
1 33 -13 23 -24 24 -32 4 -25 -10 4 -15 0 -15 -11 0 -11 5 -15 15 -12 8 4 17
2 20 -3 4 -6 2 -10 -4 -10 -6 0 -8 -7 -5 -15 4 -10 0 -15 -15 -15 -18 0 -20
-4 -14 -32 3 -18 11 -36 17 -40 11 -8 -21 -12 -56 -9 -29 3 -21 -9 14 -21 29
-10 30 -12 12 -20 -13 -5 -8 -6 16 -3 161 25 182 31 159 46 -11 7 -10 9 4 9 9
0 17 6 17 13 0 7 9 13 19 13 11 0 17 -4 15 -8 -9 -14 44 -9 58 5 7 8 27 17 43
21 l30 8 -23 12 c-27 14 -19 26 18 26 30 0 50 16 50 42 0 11 -5 15 -15 12 -8
-4 -15 -12 -15 -20 0 -8 -4 -14 -10 -14 -5 0 -10 5 -10 12 0 6 -7 20 -17 30
-13 15 -14 18 -2 18 8 0 20 -5 27 -12 9 -9 12 -9 12 0 0 8 15 12 43 11 23 -1
32 -4 20 -6 -28 -5 -29 -14 -3 -31 12 -7 18 -17 15 -22 -7 -11 35 -31 48 -23
5 3 0 11 -10 19 -14 11 -14 14 -3 12 8 -1 55 2 103 6 72 6 92 5 111 -8 30 -19
42 -9 15 13 -20 16 -20 17 29 30 28 7 56 19 62 27 7 7 28 16 47 20 20 4 44 15
55 26 10 10 32 21 48 25 31 6 42 23 15 23 -8 0 -15 4 -15 9 0 4 18 5 40 1 52
-9 115 2 141 26 25 23 22 22 43 5 15 -12 19 -11 36 7 12 13 16 23 10 27 -6 4
-8 10 -5 15 10 16 -34 33 -51 19 -18 -15 -18 -29 1 -29 8 0 15 -5 15 -10 0 -7
-6 -7 -19 0 -14 7 -20 7 -23 -2 -3 -8 -11 -9 -24 -3 -10 4 -22 8 -25 7 -4 -1
-6 13 -5 31 l1 32 -67 1 c-38 1 -68 -3 -68 -8 0 -5 6 -8 13 -7 38 5 57 -2 57
-21 0 -19 -2 -20 -30 -5 -37 19 -57 19 -68 -1 -8 -14 -13 -15 -46 -3 -34 12
-39 12 -47 -4 -6 -9 -21 -17 -34 -17 -13 0 -27 -4 -30 -10 -3 -6 -28 -10 -55
-10 -40 0 -48 -3 -44 -15 4 -8 1 -15 -5 -15 -6 0 -8 -7 -5 -15 7 -17 44 -21
44 -5 0 6 -4 10 -10 10 -5 0 -10 7 -10 15 0 12 4 13 19 6 25 -14 16 -58 -13
-67 -11 -4 -23 -10 -26 -14 -6 -9 -37 -14 -60 -10 -8 2 1 6 20 10 30 6 26 8
-30 9 -36 1 -74 6 -85 11 -13 5 5 7 49 6 48 -1 71 3 73 12 3 6 8 10 13 7 4 -3
6 4 3 15 -3 11 -10 20 -15 20 -5 0 -1 11 9 25 12 15 24 22 36 19 10 -3 47 -2
84 2 59 6 65 8 48 20 -18 14 -18 14 1 14 10 0 26 5 34 11 11 8 7 9 -17 4 -21
-4 -33 -3 -33 4 0 6 -10 11 -22 11 -18 0 -20 2 -8 10 8 5 26 7 40 4 24 -4 24
-4 3 5 -13 6 -23 15 -23 21 0 16 -47 12 -53 -5 -4 -8 -2 -17 2 -20 5 -3 4 -16
-2 -30 -14 -29 -50 -35 -45 -7 2 13 -3 16 -26 14 -20 -3 -26 0 -21 9 5 7 1 17
-10 25 -16 12 -14 14 21 29 21 8 44 13 52 10 8 -3 24 1 36 8 12 8 54 17 94 21
67 7 73 6 70 -11 -2 -13 4 -19 25 -21 33 -4 35 11 5 27 -19 9 -4 10 72 6 52
-3 114 -5 138 -5 35 1 42 -2 42 -18 0 -11 -7 -25 -15 -32 -18 -15 -11 -30 15
-30 23 0 60 37 60 60 0 12 17 20 65 29 81 16 135 8 135 -19 0 -11 -6 -20 -12
-20 -30 -2 51 -27 90 -29 66 -3 92 -16 92 -46 0 -20 -8 -29 -32 -39 -18 -7
-42 -17 -53 -21 -15 -6 -5 -10 40 -16 52 -6 63 -5 81 12 11 10 31 19 45 19 20
0 21 2 9 11 -11 8 -12 12 -2 16 6 2 10 8 7 13 -2 4 9 10 25 14 17 3 30 11 30
18 0 7 20 21 45 31 l45 19 0 84 c0 70 -2 82 -15 78 -18 -7 -105 17 -105 28 0
4 9 8 19 8 10 0 21 7 24 15 4 8 22 21 42 29 29 12 35 20 35 44 0 21 -6 31 -20
35 -24 6 -27 39 -5 60 8 8 11 17 8 21 -4 3 -1 6 5 6 9 0 12 129 12 515 l0 515
-214 0 c-127 0 -217 -4 -221 -10 -3 -5 0 -18 6 -28 10 -16 20 -19 51 -15 25 4
38 2 38 -6 0 -6 -6 -12 -12 -12 -7 -1 1 -5 17 -8 17 -4 35 -5 40 -2 22 13 101
29 110 23 5 -4 30 -12 55 -18 l45 -12 -61 -1 c-52 -1 -62 -4 -67 -20 -5 -19
-13 -20 -148 -15 -79 2 -162 6 -184 9 -22 2 -47 -2 -56 -8 -21 -16 -112 -10
-106 7 2 6 17 12 34 14 24 2 34 10 42 33 8 24 16 29 41 29 17 0 39 -4 49 -10
25 -13 91 -1 91 16 0 8 -11 14 -25 14 -14 0 -25 5 -25 10 0 7 -150 10 -429 10
-369 0 -430 -2 -441 -15 -7 -8 -16 -15 -21 -15 -5 0 -6 7 -3 15 4 10 0 15 -15
15 -18 0 -21 -6 -22 -47 -1 -56 -12 -93 -23 -75 -4 7 -5 16 -2 21 3 4 1 23 -4
41 -8 27 -6 36 8 46 15 11 7 13 -50 14 -78 0 -98 -6 -98 -30 0 -10 -13 -23
-30 -30 -29 -12 -43 -50 -19 -50 5 0 7 -4 4 -10 -3 -5 -21 -10 -39 -10 -31 0
-32 1 -28 35 3 22 13 42 28 54 13 10 24 24 24 30 0 8 -287 11 -1042 10 -574
-1 -1025 -5 -1003 -9 l40 -6 -38 -8 c-21 -5 -56 -6 -77 -3 -22 3 -43 0 -50 -7
-10 -8 -12 -6 -7 12 5 21 3 22 -73 22 l-78 0 2 -27 c2 -27 0 -28 -46 -30 -26
0 -45 3 -42 8 3 5 12 9 20 9 9 0 22 7 30 15 23 23 -3 19 -56 -8 -25 -13 -51
-22 -57 -21 -7 1 -25 2 -40 4 -17 1 -22 4 -13 7 16 6 30 23 30 36 0 4 -20 7
-45 7 -34 0 -43 -3 -39 -14 7 -18 -5 -25 -47 -28 -19 -1 -40 -9 -47 -18 -11
-13 -12 -9 -7 23 l6 37 -88 0 c-53 0 -83 -4 -75 -9 15 -9 13 -41 -3 -44 -5 -1
-11 10 -13 26 l-3 27 -85 0 c-46 0 -84 -3 -84 -6 0 -3 7 -12 15 -21 9 -8 13
-18 10 -22 -4 -3 -16 6 -27 22 -11 15 -29 27 -41 27 -19 -1 -17 -5 17 -35 45
-40 42 -44 -8 -16 l-35 20 -3 -27 c-3 -25 -5 -23 -17 16 l-14 42 -354 0 -353
0 0 -434z m1130 392 c0 -13 -9 -41 -20 -63 l-20 -40 6 55 c4 30 8 58 11 63 9
15 23 6 23 -15z m3638 -25 l-3 -38 -55 3 c-90 4 -149 14 -160 27 -8 9 -1 14
27 18 21 4 42 2 47 -3 18 -18 53 -11 59 10 4 16 14 20 47 20 l41 0 -3 -37z
m-278 7 c11 -7 -3 -9 -45 -9 -52 1 -55 3 -25 9 51 11 53 11 70 0z m-500 -10
c0 -5 -4 -10 -10 -10 -5 0 -10 5 -10 10 0 6 5 10 10 10 6 0 10 -4 10 -10z
m-3355 -24 c-22 -12 -42 -21 -44 -20 -8 7 45 43 64 44 14 0 8 -7 -20 -24z
m143 -11 c-3 -3 -9 2 -12 12 -6 14 -5 15 5 6 7 -7 10 -15 7 -18z m872 15 c0
-5 -2 -10 -4 -10 -3 0 -8 5 -11 10 -3 6 -1 10 4 10 6 0 11 -4 11 -10z m-723
-62 c-2 -13 -4 -5 -4 17 -1 22 1 32 4 23 2 -10 2 -28 0 -40z m673 25 c31 -27
39 -53 18 -53 -7 0 -24 14 -37 30 -13 17 -30 30 -38 30 -8 0 -11 5 -8 10 11
17 34 11 65 -17z m2344 -15 c-5 -7 -10 -24 -11 -38 -7 -61 -15 -90 -24 -90 -5
0 -12 6 -15 14 -3 8 -13 13 -23 11 -10 -2 -24 1 -32 6 -11 7 -10 9 6 10 11 1
27 1 36 0 12 -1 19 9 22 31 17 97 19 101 34 85 10 -9 12 -20 7 -29z m-2180
-35 l17 -38 -25 30 c-26 31 -32 45 -18 45 5 0 16 -17 26 -37z m-777 -5 c-3 -8
-6 -5 -6 6 -1 11 2 17 5 13 3 -3 4 -12 1 -19z m683 -79 c-12 -35 -18 -65 -13
-66 4 -2 26 -12 48 -23 l40 -20 -34 5 c-45 7 -81 31 -81 53 0 9 11 40 25 67
13 28 25 57 26 65 1 12 2 12 6 -1 2 -9 -6 -45 -17 -80z m-60 36 c8 -9 7 -14
-4 -18 -16 -6 -59 21 -51 33 7 11 41 1 55 -15z m119 -9 c10 -12 8 -13 -8 -9
-12 3 -18 9 -15 14 7 12 10 11 23 -5z m-1154 -6 c-3 -5 -11 -10 -16 -10 -6 0
-7 5 -4 10 3 6 11 10 16 10 6 0 7 -4 4 -10z m3415 -70 c91 2 590 -42 590 -53
0 -4 -70 -7 -155 -6 -86 1 -158 -1 -162 -5 -3 -3 10 -6 30 -6 43 0 49 -15 10
-25 -37 -10 -252 -7 -291 4 -21 7 -34 5 -43 -5 -12 -11 -39 -20 -72 -23 -4 -1
-5 -12 -1 -26 6 -24 5 -25 -51 -25 -48 0 -58 3 -62 19 -3 12 -17 23 -34 26
-35 8 -38 32 -6 45 15 6 17 9 6 9 -24 1 -42 27 -34 50 7 24 51 31 145 24 36
-3 94 -4 130 -3z m-2442 -80 c-2 -65 -13 -83 -41 -69 l-21 12 22 15 c18 12 22
24 22 66 0 37 3 47 10 36 6 -8 9 -35 8 -60z m1680 39 c5 -42 11 -52 25 -42 6
6 29 13 50 16 28 4 37 2 37 -9 0 -8 -10 -14 -25 -14 -14 0 -25 -4 -25 -10 0
-16 70 -12 76 4 3 8 13 12 26 8 19 -5 21 -2 15 31 -4 27 -2 37 7 37 17 0 28
-40 15 -56 -13 -16 9 -23 98 -31 46 -4 69 -9 61 -14 -10 -7 -9 -9 5 -9 9 0 17
-4 17 -10 0 -5 9 -10 20 -10 11 0 20 -4 20 -9 0 -5 25 -13 55 -17 59 -9 74
-27 28 -31 -16 -2 -98 -6 -183 -10 l-155 -8 100 -13 c87 -11 110 -11 180 3 44
9 119 20 167 24 48 5 93 13 100 19 7 5 66 12 130 14 64 2 122 9 130 15 7 6 65
20 128 32 63 12 136 26 162 32 41 9 108 18 243 32 22 3 49 1 60 -4 16 -6 17
-8 3 -8 -14 -1 -15 -6 -7 -33 12 -44 11 -88 -2 -88 -5 0 -9 8 -8 18 5 31 -11
90 -26 96 -8 3 -15 1 -15 -4 0 -5 -7 -6 -17 -3 -11 4 -14 3 -9 -5 5 -8 0 -12
-13 -12 -13 0 -18 -5 -15 -13 5 -15 -105 -42 -329 -82 -78 -14 -173 -33 -210
-42 -62 -14 -69 -14 -86 1 -10 9 -26 16 -37 15 -15 0 -14 -2 6 -11 24 -10 24
-10 5 -18 -32 -14 -45 -11 -38 6 5 13 2 15 -15 10 -17 -6 -21 -4 -16 8 6 16 1
15 -86 -7 -41 -10 -43 -12 -20 -19 17 -5 13 -6 -15 -3 -37 5 -68 -4 -66 -19 3
-20 0 -27 -11 -25 -7 1 -20 0 -28 -4 -8 -3 -26 -8 -40 -11 -14 -3 -68 -14
-120 -26 -105 -23 -141 -30 -280 -54 -52 -9 -230 -41 -395 -71 -165 -30 -373
-68 -463 -84 -89 -15 -166 -32 -170 -35 -8 -8 -19 -482 -21 -854 l-1 -234 68
4 c64 3 67 2 64 -19 -2 -14 4 -23 18 -28 11 -3 20 -11 20 -16 0 -5 7 -9 16 -9
14 0 14 -3 4 -15 -7 -8 -9 -15 -4 -15 5 0 2 -5 -6 -10 -12 -8 -13 -13 -2 -30
10 -16 10 -20 -2 -20 -18 0 -28 38 -15 61 13 24 12 29 -7 29 -9 0 -12 -5 -8
-12 4 -7 3 -8 -4 -4 -6 4 -9 12 -6 19 3 8 -6 14 -25 15 -21 2 -30 -3 -34 -18
-3 -11 -10 -20 -16 -20 -14 0 -14 33 -1 46 8 8 6 15 -6 24 -14 12 -18 11 -34
-9 -14 -20 -19 -22 -26 -9 -7 11 -21 13 -58 9 -47 -6 -49 -7 -32 -23 10 -10
23 -18 29 -18 6 0 1 -7 -11 -16 -13 -9 -29 -13 -37 -10 -7 2 -15 0 -17 -6 -2
-6 -18 3 -36 19 l-33 30 40 13 40 13 3 286 c1 157 3 410 3 561 l0 275 -50 8
c-27 4 -72 12 -100 17 -27 6 -66 12 -85 15 -140 19 -225 38 -234 53 -7 12 -10
12 -17 1 -6 -10 -9 -11 -9 -1 0 15 -32 16 -48 0 -6 -6 -14 -9 -17 -6 -3 3 12
14 34 25 42 21 44 33 4 33 -13 0 -23 5 -23 10 0 6 16 8 38 5 77 -9 140 -15
227 -20 50 -3 114 -10 143 -16 127 -25 204 -27 312 -8 147 25 230 38 338 54
164 23 146 49 -40 58 -109 6 -128 4 -128 -8 0 -8 8 -15 18 -16 26 -1 -36 -18
-103 -28 -33 -5 -65 -5 -70 0 -6 4 -49 8 -96 8 -46 -1 -101 2 -121 6 -25 5
-43 2 -61 -9 -19 -13 -40 -15 -103 -11 -108 8 -146 13 -153 21 -3 4 6 4 21 0
22 -5 33 -1 54 24 15 16 31 27 35 24 5 -3 9 -1 9 4 0 6 6 10 13 9 31 -1 47 4
47 14 0 6 -11 8 -27 5 -79 -14 -125 -17 -118 -7 3 6 -1 11 -9 11 -20 0 -20 14
-1 34 20 20 116 31 155 18 17 -7 30 -7 30 -2 0 6 10 6 26 0 35 -14 88 -12 102
2 8 8 12 9 12 1 0 -17 130 -36 160 -24 14 5 18 10 10 10 -11 1 -11 4 -2 13 20
20 14 26 -28 33 -26 4 -46 3 -55 -5 -25 -20 -60 -8 -63 23 -2 15 1 27 7 27 6
0 11 -11 11 -25 0 -28 12 -32 32 -12 15 16 105 28 218 32 41 1 90 6 108 10 32
7 34 9 27 41 -5 27 -3 34 10 34 11 0 15 -10 15 -36 0 -39 1 -39 71 -18 11 3
18 -3 22 -16 4 -14 14 -20 34 -20 15 -1 57 -4 93 -7 36 -4 89 -7 118 -6 28 1
52 -3 52 -8 0 -5 -22 -9 -49 -9 -42 0 -73 -13 -60 -24 7 -6 134 -19 172 -18
20 1 37 -3 37 -8 0 -6 9 -10 20 -10 34 0 22 -17 -17 -25 -21 -4 -101 -6 -177
-6 -77 1 -136 -2 -132 -6 30 -30 274 -45 360 -22 21 6 59 12 85 15 109 11 132
16 138 30 3 8 4 17 2 19 -2 2 -46 6 -97 10 -51 3 -105 10 -119 16 -25 9 -25
11 -19 72 7 64 20 83 63 93 18 5 21 11 16 41 -5 28 -3 35 8 31 8 -2 15 -15 17
-29z m390 14 c-3 -15 -15 -18 -71 -20 -37 0 -67 2 -67 7 0 11 60 28 103 29 32
1 38 -2 35 -16z m-153 -33 c3 -5 1 -10 -4 -10 -6 0 -11 5 -11 10 0 6 2 10 4
10 3 0 8 -4 11 -10z m-635 -65 c0 -8 5 -15 10 -15 15 0 12 -17 -5 -24 -26 -10
-42 3 -37 30 5 26 32 34 32 9z m148 -2 c-3 -13 -12 -17 -33 -16 -86 6 -97 33
-14 33 43 0 50 -3 47 -17z m-1498 -63 c0 -6 9 -14 20 -18 13 -5 16 -12 11 -21
-7 -10 -13 -8 -30 10 -23 25 -27 39 -11 39 6 0 10 -5 10 -10z m480 -5 c0 -8
-4 -15 -10 -15 -5 0 -10 7 -10 15 0 8 5 15 10 15 6 0 10 -7 10 -15z m1964 -71
c3 -8 2 -12 -4 -9 -6 3 -10 10 -10 16 0 14 7 11 14 -7z m853 -111 c-2 -21 -4
-4 -4 37 0 41 2 58 4 38 2 -21 2 -55 0 -75z m-3130 81 c-3 -3 -12 -4 -19 -1
-8 3 -5 6 6 6 11 1 17 -2 13 -5z m-72 -134 c-11 -18 -27 -11 -22 11 3 12 -3
35 -14 52 -10 18 -19 41 -19 52 1 11 14 -7 31 -42 17 -34 28 -67 24 -73z
m-225 18 c0 -10 -4 -18 -10 -18 -5 0 -10 7 -10 16 0 14 -7 15 -39 10 -29 -4
-42 -2 -52 11 -13 15 -11 16 21 11 19 -3 44 -2 55 2 22 8 35 -4 35 -32z m127
0 c-3 -8 -6 -5 -6 6 -1 11 2 17 5 13 3 -3 4 -12 1 -19z m210 16 c-3 -3 -12 -4
-19 -1 -8 3 -5 6 6 6 11 1 17 -2 13 -5z m1857 -3 c7 -10 -93 -31 -148 -30 -35
0 -38 2 -18 9 13 6 51 14 85 19 34 5 65 9 69 10 4 0 9 -3 12 -8z m-1767 -7
c-3 -3 -12 -4 -19 -1 -8 3 -5 6 6 6 11 1 17 -2 13 -5z m-227 -61 c0 -4 -5 -2
-11 4 -6 6 -17 9 -24 7 -6 -3 -18 3 -26 13 -13 16 -12 17 4 4 9 -8 21 -10 25
-6 4 4 1 10 -5 12 -7 3 -13 10 -13 16 0 7 11 0 25 -15 14 -15 25 -30 25 -35z
m2810 48 c0 -6 -4 -13 -10 -16 -5 -3 -10 1 -10 9 0 9 5 16 10 16 6 0 10 -4 10
-9z m90 -17 c0 -19 -5 -25 -17 -22 -24 4 -28 35 -6 41 10 3 19 5 21 6 1 0 2
-11 2 -25z m238 -31 c3 -18 -1 -22 -27 -21 -30 1 -43 23 -24 42 15 14 48 1 51
-21z m-3300 -1 c6 -18 -15 -14 -22 4 -4 10 -1 14 6 12 6 -2 14 -10 16 -16z
m3452 -12 c0 -11 -4 -20 -10 -20 -5 0 -10 9 -10 20 0 11 5 20 10 20 6 0 10 -9
10 -20z m196 -3 c17 -17 -18 -34 -63 -30 -64 5 -74 9 -66 29 5 13 17 15 64 12
32 -2 62 -7 65 -11z m74 -22 c0 -15 -18 -30 -27 -22 -2 3 -2 15 2 26 7 23 25
19 25 -4z m-3707 -72 c-6 -37 -9 -69 -8 -71 2 -2 58 7 126 19 182 31 323 47
333 38 6 -6 5 -9 -2 -9 -7 0 -12 -7 -12 -15 0 -10 6 -12 18 -8 10 4 6 -4 -11
-19 -16 -15 -27 -34 -25 -44 2 -13 -9 -20 -47 -31 -73 -19 -207 -42 -309 -53
-82 -8 -91 -8 -103 9 -7 10 -28 22 -48 25 -31 6 -34 9 -25 26 10 18 60 51 77
50 5 0 8 12 8 28 0 15 4 30 9 33 11 9 -3 31 -15 24 -15 -10 -10 15 6 31 8 9
15 25 15 37 0 16 3 18 12 9 8 -8 9 -29 1 -79z m3857 42 c0 -16 -6 -25 -15 -25
-16 0 -19 9 -9 34 9 25 24 19 24 -9z m188 19 c20 -6 23 -12 20 -48 -3 -36 -6
-41 -25 -38 -12 2 -24 -2 -28 -8 -3 -5 -18 -10 -33 -10 -25 0 -25 1 -6 15 19
14 19 14 -2 15 -24 0 -34 18 -34 56 0 22 4 24 43 24 23 0 52 -3 65 -6z m-253
-54 c3 -5 4 -10 2 -10 -2 0 -55 -13 -118 -30 -62 -16 -115 -27 -117 -25 -3 3
4 7 14 11 10 4 38 15 62 25 23 10 62 21 85 24 23 4 44 9 46 11 7 7 20 4 26 -6z
m-1455 -62 c0 -5 10 -6 23 -3 17 5 19 4 7 -4 -10 -7 -11 -11 -2 -11 6 0 12 -7
12 -16 0 -13 -7 -15 -32 -10 -41 8 -57 22 -51 45 3 13 11 17 24 14 10 -3 19
-10 19 -15z m390 -73 c11 -13 10 -14 -4 -9 -9 3 -16 10 -16 15 0 13 6 11 20
-6z m-49 -10 c0 -5 -39 -19 -88 -30 -48 -10 -90 -23 -94 -27 -5 -7 -60 -21
-129 -33 -31 -5 -60 3 -60 17 0 6 10 8 24 4 14 -3 28 -1 32 6 5 7 2 8 -7 3 -9
-5 -11 -5 -4 2 6 6 48 18 95 27 47 9 112 22 145 30 67 16 86 16 86 1z m-2294
-131 c-3 -3 -12 -4 -19 -1 -8 3 -5 6 6 6 11 1 17 -2 13 -5z m-67 -14 c-14 -4
-36 -8 -50 -8 l-25 0 25 8 c14 4 36 8 50 8 l25 0 -25 -8z m-118 -34 c-2 -10 4
-26 13 -36 16 -17 15 -19 -3 -29 -14 -7 -24 -7 -37 3 -18 13 -12 42 6 31 5 -4
9 1 9 10 0 9 -5 13 -11 9 -16 -9 -31 18 -16 28 20 13 42 4 39 -16z m2205 -58
c-2 -7 -15 -12 -28 -10 -19 2 -21 0 -9 -8 10 -6 11 -10 2 -10 -6 0 -22 -11
-34 -25 -12 -14 -32 -25 -46 -25 -14 0 -22 -3 -19 -7 10 -9 -41 -33 -58 -26
-9 3 -21 1 -28 -5 -6 -6 -59 -16 -117 -22 -58 -7 -138 -21 -177 -31 -40 -11
-75 -19 -78 -19 -3 0 -5 -7 -5 -15 0 -9 -6 -12 -15 -9 -8 4 -15 3 -15 0 0 -4
10 -11 23 -16 16 -6 18 -9 5 -9 -10 -1 -32 -8 -50 -15 -18 -8 -65 -24 -104
-36 l-71 -21 -6 -82 c-4 -45 -7 -101 -7 -125 0 -43 0 -43 32 -40 19 2 33 -2
35 -9 5 -13 -14 -18 -50 -15 -10 1 -16 -2 -13 -7 3 -5 0 -14 -8 -20 -11 -9
-15 -6 -22 16 -4 16 -8 31 -8 35 -2 18 -16 18 -16 0 0 -15 -6 -22 -18 -22 -10
0 -27 -7 -38 -15 -18 -13 -18 -14 -1 -15 14 0 17 -5 11 -22 -4 -13 -7 -30 -8
-38 -1 -8 -5 -20 -11 -26 -11 -13 -35 -7 -35 8 0 5 4 6 10 3 6 -3 7 1 4 9 -3
9 -11 13 -18 10 -6 -3 -2 2 8 10 19 16 19 16 -2 16 -12 0 -21 3 -21 8 3 16 -1
32 -8 31 -5 -1 -18 2 -29 6 l-21 7 19 61 c20 65 14 107 -16 107 -42 0 -59 -63
-31 -116 8 -16 15 -37 15 -46 0 -10 5 -18 11 -18 8 0 8 -5 -1 -15 -9 -11 -10
-15 -1 -15 7 0 20 -8 29 -17 16 -15 15 -16 -14 -10 -45 9 -74 -2 -74 -26 0
-15 -3 -18 -10 -11 -10 10 -67 0 -113 -20 -16 -8 -33 -6 -77 5 -9 2 -16 -4
-18 -17 -2 -16 5 -24 27 -34 17 -7 31 -16 31 -21 0 -18 32 -8 37 12 4 16 12
19 36 17 17 -2 33 -9 35 -17 3 -8 0 -11 -6 -8 -5 4 -12 -2 -15 -12 -6 -24 -51
-32 -77 -14 -11 8 -20 11 -20 8 0 -3 -9 -1 -20 5 -11 6 -18 15 -15 21 4 5 -2
9 -12 9 -14 0 -19 9 -21 36 -2 34 0 36 22 32 15 -3 27 0 30 8 5 13 0 15 -21
13 -10 -1 -21 31 -22 63 -1 14 -6 28 -11 30 -7 2 -7 26 0 76 5 41 8 78 5 83
-9 14 31 79 50 79 7 0 27 -48 30 -77 6 -47 17 -83 25 -83 4 0 11 18 15 40 7
42 35 57 35 19 0 -12 4 -17 11 -13 6 3 9 15 6 25 -3 10 2 45 10 76 8 31 13 68
10 81 -2 13 -1 39 3 57 l7 33 -59 12 c-33 6 -62 9 -66 6 -3 -3 -11 -1 -18 5
-7 6 -25 14 -41 18 -22 6 -7 10 72 21 55 7 109 10 120 8 19 -5 18 -6 -5 -17
-22 -10 -19 -11 25 -6 109 11 209 15 190 7 -18 -8 -17 -9 8 -16 15 -3 36 -2
47 4 26 14 40 13 40 -5 0 -11 7 -14 23 -11 12 3 49 7 83 11 66 6 307 56 394
81 127 37 134 38 138 26 5 -17 42 -15 42 2 0 21 64 43 133 45 27 1 37 -3 34
-11z m-2047 -29 c0 -10 -78 -16 -92 -8 -10 6 11 10 80 15 6 0 12 -3 12 -7z
m724 -194 c-21 -16 -65 -21 -48 -6 8 8 34 17 58 20 6 0 1 -6 -10 -14z m1714
-7 c-2 -18 3 -24 27 -29 17 -4 24 -7 17 -8 -7 0 -10 -5 -7 -11 3 -5 1 -10 -4
-10 -6 0 -10 -3 -10 -7 1 -5 1 -20 0 -35 -1 -25 -5 -27 -56 -33 -30 -4 -58
-11 -61 -16 -3 -5 0 -9 6 -9 6 0 8 -4 5 -10 -9 -15 -35 -12 -35 3 0 20 31 45
64 51 40 7 41 12 4 20 l-33 8 25 10 c14 6 28 10 33 10 4 -1 7 9 7 23 0 14 -3
24 -7 24 -24 -4 -63 2 -63 9 0 12 40 31 68 31 18 1 23 -4 20 -21z m-1692 -22
c3 -8 -1 -27 -10 -43 l-15 -28 -1 33 c0 23 -5 32 -17 33 -15 0 -15 2 2 9 29
12 35 12 41 -4z m1564 -15 c0 -13 -56 -24 -72 -15 -8 5 -6 10 8 15 27 11 64
11 64 0z m235 -11 c3 -5 2 -10 -4 -10 -5 0 -13 5 -16 10 -3 6 -2 10 4 10 5 0
13 -4 16 -10z m-325 -14 c0 -11 12 -13 51 -10 41 2 49 1 39 -10 -12 -15 -63
-28 -54 -15 6 10 -20 12 -29 2 -4 -3 -1 -13 6 -21 10 -13 9 -14 -3 -10 -8 3
-14 15 -13 27 3 21 -12 26 -57 22 -11 -1 -10 3 4 14 25 19 56 20 56 1z m-77
-36 c6 -23 -1 -25 -25 -6 -23 17 -23 26 1 26 10 0 21 -9 24 -20z m797 10 c0 6
4 10 10 10 5 0 7 -7 4 -15 -8 -20 -64 -20 -64 0 0 11 5 12 25 5 16 -6 25 -6
25 0z m-870 -10 c0 -14 -35 -26 -93 -32 -60 -7 -55 -2 20 22 69 22 73 23 73
10z m664 -9 c3 -5 -1 -11 -9 -15 -9 -3 -15 0 -15 9 0 16 16 20 24 6z m16 -27
c0 -9 -24 -29 -39 -32 -19 -4 -74 9 -67 16 3 3 23 8 43 12 51 10 63 11 63 4z
m-600 -15 c0 -5 4 -8 8 -5 5 3 20 -3 35 -13 l27 -18 -34 -10 c-28 -9 -36 -8
-40 3 -3 8 -12 14 -21 14 -15 0 -21 21 -8 33 10 11 33 8 33 -4z m-232 -4 c-3
-3 -21 -7 -39 -9 -19 -2 -52 -7 -74 -10 l-40 -6 40 14 c39 13 124 22 113 11z
m371 -11 c3 -2 -1 -10 -7 -16 -9 -9 -12 -9 -12 0 0 7 -9 12 -20 12 -11 0 -20
5 -20 11 0 10 48 5 59 -7z m407 -41 c-10 -10 -19 5 -10 18 6 11 8 11 12 0 2
-7 1 -15 -2 -18z m-1012 8 c3 -5 -1 -14 -9 -21 -8 -7 -12 -16 -10 -21 5 -8
-35 -35 -45 -30 -2 1 -6 -2 -8 -7 -5 -16 42 -39 96 -47 59 -8 66 -18 21 -34
-39 -13 -42 -14 -34 -1 3 6 -3 10 -14 10 -12 0 -21 -4 -21 -9 0 -13 -64 -4
-68 9 -2 5 -10 10 -18 10 -8 0 -14 4 -14 9 0 5 -3 17 -7 27 -4 12 -3 15 5 10
7 -4 18 -1 25 6 12 10 10 15 -9 30 -28 23 -30 23 -37 -3 -4 -15 -11 -20 -21
-16 -28 11 -46 -3 -41 -32 3 -14 2 -20 -1 -13 -3 6 -12 12 -20 12 -8 0 -14 7
-14 15 0 18 142 87 151 73 3 -5 9 0 12 11 4 16 13 21 40 21 20 0 38 -4 41 -9z
m106 -23 c0 -5 -4 -8 -10 -8 -5 0 -10 10 -10 23 0 18 2 19 10 7 5 -8 10 -18
10 -22z m70 12 c13 0 17 -5 13 -19 -7 -29 -62 -10 -63 23 0 4 7 5 16 2 9 -3
24 -6 34 -6z m360 0 c0 -5 -4 -10 -10 -10 -5 0 -10 5 -10 10 0 6 5 10 10 10 6
0 10 -4 10 -10z m130 0 c0 -13 -11 -13 -30 0 -12 8 -11 10 8 10 12 0 22 -4 22
-10z m403 3 c-7 -2 -19 -2 -25 0 -7 3 -2 5 12 5 14 0 19 -2 13 -5z m-718 -14
c4 -6 13 -8 21 -5 7 3 16 0 20 -6 5 -7 -4 -9 -28 -4 -34 6 -48 -3 -48 -34 0
-10 49 -24 73 -21 22 3 22 -12 0 -30 -9 -8 -14 -9 -10 -3 6 11 -21 29 -30 20
-10 -10 31 -36 57 -36 16 0 32 -4 35 -10 3 -5 1 -10 -5 -10 -6 0 -8 -4 -5 -10
3 -5 -7 -13 -22 -16 -15 -4 -35 -16 -44 -27 -9 -12 -21 -17 -28 -13 -8 5 0 18
24 40 32 30 34 33 13 31 -13 -2 -28 -5 -33 -6 -6 -2 -17 2 -25 9 -8 7 -24 19
-35 27 -12 8 -15 14 -7 15 7 0 24 -11 37 -25 14 -13 25 -23 26 -22 15 41 -11
70 -54 61 -21 -4 -27 -2 -25 8 2 7 -1 15 -7 18 -13 5 -35 27 -35 34 0 3 20 6
44 6 25 0 48 5 51 10 8 13 32 13 40 -1z m352 -4 c0 -8 -9 -15 -19 -15 -18 0
-24 11 -11 23 12 12 30 7 30 -8z m-192 -5 c3 -5 -3 -10 -14 -10 -12 0 -21 5
-21 10 0 6 6 10 14 10 8 0 18 -4 21 -10z m295 0 c13 -8 13 -10 -2 -10 -9 0
-19 -6 -21 -12 -3 -7 -6 -3 -6 10 -1 24 6 27 29 12z m139 -6 c2 -2 -21 -4 -52
-4 -33 0 -57 4 -57 10 0 10 98 4 109 -6z m31 -4 c0 -5 -5 -10 -11 -10 -5 0 -7
5 -4 10 3 6 8 10 11 10 2 0 4 -4 4 -10z m-480 -35 c-10 -12 -9 -19 3 -38 12
-19 12 -26 2 -40 -17 -24 -44 -21 -49 6 -9 48 -5 68 17 77 33 13 41 12 27 -5z
m-416 -26 c-8 -14 -24 -10 -24 6 0 9 6 12 15 9 8 -4 12 -10 9 -15z m-339 -20
c-3 -4 -18 -2 -35 4 -18 7 -25 14 -18 18 13 8 59 -11 53 -22z m85 -34 c7 -8
18 -15 26 -15 7 0 16 -5 19 -10 6 -9 -93 25 -104 36 -2 2 7 4 21 4 14 0 31 -7
38 -15z m-2075 -5 c4 -6 -11 -10 -37 -9 -33 0 -38 2 -23 9 28 12 53 12 60 0z
m1951 -10 c24 0 16 -34 -11 -47 -14 -6 -23 -8 -20 -3 3 4 -1 10 -9 13 -9 4
-12 14 -9 27 4 13 11 19 20 16 8 -3 21 -6 29 -6z m70 -17 c18 -19 21 -29 12
-34 -16 -10 -25 -4 -43 32 -20 37 -3 38 31 2z m-188 -61 c2 -7 -5 -12 -16 -12
-11 0 -25 -6 -31 -14 -7 -8 -21 -13 -33 -11 -14 3 -18 0 -14 -10 6 -16 -28
-40 -44 -30 -5 3 -12 1 -15 -5 -5 -8 -11 -8 -19 -1 -9 8 -19 5 -34 -9 -12 -11
-28 -20 -37 -20 -9 0 -14 -4 -11 -8 2 -4 -20 -8 -49 -9 -30 -1 -58 -4 -64 -7
-12 -8 -41 3 -41 16 0 5 4 7 9 4 5 -3 11 5 13 19 3 13 0 26 -6 29 -6 2 -2 5
10 5 12 1 43 -10 69 -24 l48 -26 26 26 c15 14 35 25 45 25 9 0 32 16 50 36 25
27 34 32 39 21 7 -18 58 -11 70 10 10 16 29 13 35 -5z m62 14 c0 -3 -4 -8 -10
-11 -5 -3 -10 -1 -10 4 0 6 5 11 10 11 6 0 10 -2 10 -4z m185 -16 c-3 -5 -11
-10 -16 -10 -6 0 -7 5 -4 10 3 6 11 10 16 10 6 0 7 -4 4 -10z m-502 -40 c-7
-28 -13 -25 -13 6 0 14 4 23 9 20 5 -3 7 -15 4 -26z m-39 -5 c25 -19 16 -19
-20 0 -16 8 -22 15 -14 15 8 -1 24 -7 34 -15z m346 -29 c0 -2 -7 -6 -15 -10
-8 -3 -15 -1 -15 4 0 6 7 10 15 10 8 0 15 -2 15 -4z m-130 -21 c14 -8 19 -14
12 -15 -7 0 -11 -4 -8 -8 2 -4 -7 -9 -22 -10 l-27 -1 25 14 c18 10 20 14 8 15
-9 0 -20 5 -23 10 -9 14 5 12 35 -5z m-982 -51 c-9 -9 -30 -18 -48 -20 -17 -2
-36 -6 -41 -9 -12 -8 -11 6 1 25 8 12 10 12 10 1 0 -11 3 -11 15 -1 8 7 15 10
15 7 0 -4 10 -2 23 3 34 14 43 12 25 -6z m532 -20 c0 -2 -12 -4 -27 -4 -21 0
-24 3 -14 9 13 8 41 5 41 -5z m510 -29 c0 -21 -5 -19 -25 11 -16 25 -16 25 4
14 12 -6 21 -17 21 -25z m-743 2 c11 4 14 2 11 -8 -3 -8 -9 -14 -14 -14 -5 0
-15 -4 -23 -9 -11 -7 -13 -5 -8 8 4 10 8 25 8 34 1 16 2 16 6 0 3 -11 10 -15
20 -11z m353 -7 c0 -5 -7 -10 -16 -10 -8 0 -12 5 -9 10 3 6 10 10 16 10 5 0 9
-4 9 -10z m350 -10 c0 -5 -2 -10 -4 -10 -3 0 -8 5 -11 10 -3 6 -1 10 4 10 6 0
11 -4 11 -10z m-423 -24 c-7 -14 -16 -21 -20 -17 -11 11 2 41 18 41 10 0 11
-5 2 -24z m403 4 c0 -4 -9 -10 -20 -13 -19 -5 -28 12 -14 26 8 7 34 -3 34 -13z
m-630 -14 c0 -8 -6 -16 -13 -19 -8 -3 -13 3 -13 14 0 11 6 19 13 19 7 0 13 -6
13 -14z m170 -1 c0 -2 -10 -9 -22 -15 -22 -11 -22 -10 -4 4 21 17 26 19 26 11z
m-550 -21 c0 -2 -7 -4 -15 -4 -8 0 -15 4 -15 10 0 5 7 7 15 4 8 -4 15 -8 15
-10z m735 6 c3 -5 -1 -10 -9 -10 -9 0 -16 5 -16 10 0 6 4 10 9 10 6 0 13 -4
16 -10z m-35 -4 c0 -2 -13 -6 -29 -8 -17 -2 -28 -1 -25 4 5 8 54 12 54 4z
m-540 -16 c11 -7 7 -10 -17 -10 -18 0 -33 5 -33 10 0 13 30 13 50 0z m545 -40
c3 -5 -3 -10 -14 -10 -12 0 -21 5 -21 10 0 6 6 10 14 10 8 0 18 -4 21 -10z"/>
<path d="M1952 2988 c5 -15 37 -18 41 -3 1 6 -9 12 -22 13 -16 3 -22 -1 -19
-10z"/>
<path d="M2736 2186 c4 -10 1 -16 -7 -16 -15 0 21 -29 36 -30 6 0 11 12 10 28
0 20 -6 28 -22 30 -17 3 -21 0 -17 -12z"/>
<path d="M2730 2133 c0 -5 5 -15 10 -23 8 -12 10 -11 10 8 0 12 -4 22 -10 22
-5 0 -10 -3 -10 -7z"/>
<path d="M2751 2044 c0 -11 3 -14 6 -6 3 7 2 16 -1 19 -3 4 -6 -2 -5 -13z"/>
<path d="M0 2742 c0 -25 25 -32 115 -32 49 0 65 3 55 10 -8 5 -29 10 -45 10
-17 0 -35 4 -40 9 -6 5 -27 13 -47 16 -34 6 -38 5 -38 -13z"/>
<path d="M213 2688 c56 -10 73 -29 31 -36 -34 -7 -40 -22 -7 -22 17 0 41 -8
54 -19 52 -40 299 -31 307 12 3 15 -7 17 -80 18 -46 0 -92 4 -102 8 -19 7 -18
8 5 15 22 8 19 9 -21 17 -25 5 -90 11 -145 14 -94 4 -96 3 -42 -7z"/>
<path d="M120 2578 c-30 -5 -70 -11 -87 -14 -33 -5 -47 -24 -18 -24 8 0 15 4
15 9 0 6 36 9 83 8 45 -1 100 2 122 7 37 8 38 9 15 16 -32 10 -62 10 -130 -2z"/>
<path d="M720 2490 c-253 -43 -552 -92 -630 -104 l-85 -12 -3 -317 c-2 -297
-1 -317 15 -317 10 0 88 16 173 36 85 19 188 41 227 49 245 49 485 107 489
120 2 5 1 134 -3 285 l-8 275 -35 2 c-19 1 -82 -7 -140 -17z"/>
<path d="M4790 2229 c0 -5 5 -7 10 -4 6 3 10 8 10 11 0 2 -4 4 -10 4 -5 0 -10
-5 -10 -11z"/>
<path d="M4656 2223 c-3 -4 -6 -15 -6 -25 0 -15 6 -19 28 -16 15 2 27 9 27 17
0 15 -39 34 -49 24z"/>
<path d="M4982 2208 c-7 -7 -12 -16 -12 -20 0 -11 -38 -48 -49 -48 -15 0 -20
-28 -6 -34 7 -2 29 0 49 5 42 12 58 46 30 66 -16 12 -14 13 19 13 28 0 35 3
31 15 -7 18 -45 20 -62 3z"/>
<path d="M4517 2195 c-15 -11 -15 -14 -3 -25 18 -14 56 -4 56 15 0 18 -33 25
-53 10z"/>
<path d="M5055 2170 c-3 -5 -1 -10 4 -10 6 0 11 5 11 10 0 6 -2 10 -4 10 -3 0
-8 -4 -11 -10z"/>
<path d="M4855 2160 c-3 -5 1 -10 9 -10 9 0 16 5 16 10 0 6 -4 10 -9 10 -6 0
-13 -4 -16 -10z"/>
<path d="M5120 2150 c0 -5 5 -10 10 -10 6 0 10 5 10 10 0 6 -4 10 -10 10 -5 0
-10 -4 -10 -10z"/>
<path d="M4760 2110 c0 -5 5 -10 10 -10 6 0 10 5 10 10 0 6 -4 10 -10 10 -5 0
-10 -4 -10 -10z"/>
<path d="M4728 1973 c7 -3 16 -2 19 1 4 3 -2 6 -13 5 -11 0 -14 -3 -6 -6z"/>
<path d="M4568 1923 c7 -3 16 -2 19 1 4 3 -2 6 -13 5 -11 0 -14 -3 -6 -6z"/>
<path d="M4448 1840 c-164 -55 -224 -80 -216 -88 7 -7 -1 -14 -30 -23 -46 -13
-46 -34 -1 -25 16 3 29 1 29 -4 0 -8 -46 -15 -72 -11 -5 0 -8 -3 -8 -8 0 -5
-8 -7 -18 -5 -9 3 -28 1 -42 -5 -20 -8 -5 -10 65 -11 62 0 85 -3 75 -10 -8 -5
-33 -10 -56 -10 -47 0 -59 -7 -43 -27 14 -16 46 -17 52 0 4 9 6 9 6 0 1 -7 8
-10 16 -7 9 4 18 -1 22 -12 12 -34 44 -47 36 -14 -5 18 -2 19 23 10 27 -9 316
-40 375 -40 l26 0 7 171 c4 95 10 178 13 185 9 23 -20 15 -259 -66z m-191
-192 c-3 -8 -6 -5 -6 6 -1 11 2 17 5 13 3 -3 4 -12 1 -19z"/>
<path d="M731 1831 c-8 -5 -20 -7 -28 -4 -18 7 -49 -6 -37 -16 5 -5 22 -11 38
-15 23 -6 27 -4 23 8 -5 11 0 16 13 16 10 0 22 5 25 10 8 12 -15 13 -34 1z"/>
<path d="M593 1799 c11 -7 23 -7 35 0 14 9 11 10 -18 10 -29 0 -32 -1 -17 -10z"/>
<path d="M4030 1800 c-12 -8 -11 -10 7 -10 12 0 25 5 28 10 8 13 -15 13 -35 0z"/>
<path d="M4220 1800 c-20 -12 -10 -19 14 -10 11 3 15 9 10 13 -6 3 -16 2 -24
-3z"/>
<path d="M5193 1729 c-6 -6 -21 -16 -34 -23 -12 -6 -22 -15 -22 -21 0 -5 -7
-15 -16 -22 -24 -18 -11 -16 60 13 72 29 94 44 52 36 -25 -5 -27 -4 -14 11 11
15 11 17 -1 17 -8 0 -19 -5 -25 -11z"/>
<path d="M110 1720 c-11 -7 0 -10 38 -10 28 0 52 5 52 10 0 13 -70 13 -90 0z"/>
<path d="M725 1711 c-7 -12 23 -22 50 -16 11 2 28 4 38 4 9 1 17 6 17 11 0 13
-97 13 -105 1z"/>
<path d="M28 1703 c6 -2 18 -2 25 0 6 3 1 5 -13 5 -14 0 -19 -2 -12 -5z"/>
<path d="M663 1703 c9 -2 23 -2 30 0 6 3 -1 5 -18 5 -16 0 -22 -2 -12 -5z"/>
<path d="M5070 1701 c0 -5 5 -13 10 -16 6 -3 10 -2 10 4 0 5 -4 13 -10 16 -5
3 -10 2 -10 -4z"/>
<path d="M3505 1690 c-3 -5 -1 -10 4 -10 6 0 11 5 11 10 0 6 -2 10 -4 10 -3 0
-8 -4 -11 -10z"/>
<path d="M3910 1690 c-18 -12 -2 -12 25 0 13 6 15 9 5 9 -8 0 -22 -4 -30 -9z"/>
<path d="M156 1681 c-4 -5 3 -7 14 -4 23 6 26 13 6 13 -8 0 -17 -4 -20 -9z"/>
<path d="M495 1680 c-11 -4 -56 -16 -100 -25 -44 -10 -96 -23 -115 -30 -19 -7
-55 -16 -79 -20 -41 -7 -44 -6 -39 13 5 19 3 19 -19 9 -22 -10 -23 -12 -7 -17
13 -5 8 -10 -24 -23 -24 -9 -50 -17 -60 -17 -18 -1 -59 -27 -51 -33 7 -7 152
19 182 31 16 7 35 12 43 12 8 0 14 4 14 9 0 7 115 31 225 47 51 7 90 17 95 24
3 4 23 12 45 18 40 10 39 10 -25 10 -36 0 -74 -3 -85 -8z"/>
<path d="M3845 1670 c-13 -5 -14 -9 -5 -9 8 0 24 4 35 9 13 5 14 9 5 9 -8 0
-24 -4 -35 -9z"/>
<path d="M5231 1664 c-39 -17 -36 -24 11 -29 18 -1 80 -10 137 -19 130 -20
121 -20 121 7 0 21 -7 24 -112 40 -62 9 -115 17 -118 16 -3 0 -20 -7 -39 -15z"/>
<path d="M3990 1655 c-19 -7 -54 -14 -77 -14 -23 -1 -53 -5 -67 -11 -25 -9
-26 -12 -20 -72 3 -35 6 -68 6 -75 1 -8 8 -8 24 -1 13 6 21 15 17 21 -4 6 4 7
21 3 15 -4 25 -3 22 2 -3 5 0 9 7 9 7 1 28 4 47 8 32 7 34 6 20 -8 -8 -9 -24
-18 -35 -20 -11 -2 -37 -11 -59 -20 -21 -9 -44 -17 -52 -17 -7 0 -16 -4 -19
-10 -9 -14 16 -12 65 5 24 8 45 13 48 10 3 -3 0 -5 -6 -5 -7 0 -12 -4 -12 -9
0 -4 19 -8 43 -8 30 0 37 2 22 8 -21 8 -21 8 9 14 58 11 70 16 56 25 -11 7 -8
11 13 19 16 6 37 11 47 11 27 0 36 20 11 27 -12 3 -22 13 -23 22 0 9 -2 23 -2
31 -1 8 3 18 8 22 6 4 4 10 -7 13 -20 8 -51 -20 -41 -36 5 -8 9 -8 14 1 5 7 9
2 12 -14 4 -20 1 -26 -13 -26 -27 0 -33 -18 -7 -23 21 -3 20 -5 -12 -19 -38
-18 -49 -16 -33 4 17 22 22 67 6 61 -7 -3 -11 -8 -9 -12 3 -4 1 -13 -5 -21
-13 -23 -12 5 5 68 7 29 13 52 12 51 -1 0 -17 -7 -36 -14z"/>
<path d="M3778 1653 c6 -2 18 -2 25 0 6 3 1 5 -13 5 -14 0 -19 -2 -12 -5z"/>
<path d="M8 1643 c7 -3 16 -2 19 1 4 3 -2 6 -13 5 -11 0 -14 -3 -6 -6z"/>
<path d="M1290 1621 c-58 -15 -186 -49 -285 -75 -99 -25 -191 -51 -205 -57
-14 -6 -160 -44 -325 -85 -165 -41 -320 -81 -345 -89 -25 -8 -64 -19 -87 -25
l-43 -11 0 -285 c0 -268 1 -286 17 -279 10 3 72 22 138 41 66 19 129 39 140
43 11 5 68 26 127 47 60 21 108 42 108 46 0 13 54 9 100 -7 23 -8 59 -15 79
-16 20 0 45 -4 55 -8 18 -7 18 -8 -5 -14 -13 -4 -40 -7 -59 -7 -39 0 -100 -32
-100 -53 0 -11 11 -11 68 1 82 17 165 11 257 -19 l69 -23 -34 -9 c-26 -6 -30
-11 -19 -18 19 -12 56 -11 64 1 3 5 14 10 23 10 14 0 15 -2 2 -10 -16 -10 -15
-11 15 -29 19 -11 19 -12 -2 -6 -17 5 -23 2 -23 -9 0 -9 -4 -16 -10 -16 -5 0
-40 -14 -77 -32 -66 -31 -67 -32 -38 -39 28 -6 27 -7 -12 -8 -24 0 -43 -5 -43
-10 0 -5 -9 -13 -20 -16 -11 -4 -18 -10 -15 -15 3 -5 -3 -9 -12 -9 -39 -1 -53
-5 -53 -13 0 -5 -4 -6 -10 -3 -14 9 -12 42 3 49 6 3 2 3 -10 0 -21 -5 -23 -2
-23 29 0 20 6 37 13 40 9 3 7 8 -5 18 -9 8 -18 29 -20 48 -3 37 -28 57 -28 22
0 -11 -5 -23 -10 -26 -6 -4 -4 -12 5 -21 8 -9 15 -25 14 -37 0 -12 -3 -16 -6
-9 -2 6 -9 12 -14 12 -6 0 -8 -4 -5 -9 4 -5 0 -11 -6 -14 -8 -3 -1 -9 15 -16
28 -11 37 -44 16 -57 -6 -3 -8 -20 -5 -38 2 -17 1 -49 -3 -71 -8 -38 -9 -38
-10 21 -1 60 -2 62 -35 78 -19 9 -38 16 -44 16 -13 0 -102 -69 -101 -78 6 -40
-21 -58 -39 -26 -7 13 -13 14 -31 4 -13 -6 -29 -9 -36 -6 -21 8 -37 -20 -34
-58 5 -50 -9 -56 -17 -7 -4 22 -8 41 -11 41 -2 0 -24 -5 -49 -11 -46 -12 -76
-40 -68 -65 14 -46 10 -44 61 -29 56 17 69 12 22 -9 -111 -47 -211 -77 -240
-71 l-30 7 3 -71 c2 -47 7 -71 15 -71 6 0 15 5 18 10 3 6 0 10 -7 10 -24 1 90
57 177 89 98 35 124 39 105 16 -15 -19 -10 -19 25 -1 15 8 22 17 16 21 -6 3
-11 15 -11 25 0 18 2 18 40 2 35 -15 37 -18 20 -26 -11 -5 -22 -17 -26 -28 -3
-11 -17 -23 -31 -29 -32 -12 -46 -12 -38 1 7 11 -8 14 -18 4 -11 -12 36 -45
52 -38 29 12 104 34 115 34 6 0 4 -5 -4 -10 -13 -8 -12 -10 3 -10 10 0 16 -4
12 -9 -3 -5 -1 -12 5 -16 5 -3 10 -2 10 4 0 5 17 10 37 10 53 -1 113 26 113
51 0 16 4 18 23 11 30 -11 119 32 111 54 -4 8 -1 15 7 15 7 0 10 3 7 6 -4 3
-16 1 -27 -6 -13 -7 -27 -7 -37 -2 -25 14 61 33 94 21 18 -7 38 -5 71 5 25 9
62 16 81 16 19 0 76 0 125 0 85 0 341 17 395 26 87 14 119 15 140 4 13 -7 20
-8 16 -2 -4 6 1 10 11 10 10 -1 43 6 73 14 37 10 83 13 142 10 86 -4 127 6
112 29 -3 5 2 12 11 15 9 4 14 12 12 18 -2 6 -1 20 3 30 3 11 0 45 -9 75 -10
37 -16 116 -18 231 -4 172 -4 174 19 192 l23 17 -25 -6 c-14 -4 -88 -29 -165
-56 -77 -27 -171 -59 -210 -72 -65 -21 -222 -78 -288 -104 -43 -17 -88 -14
-81 4 4 10 0 15 -11 15 -9 0 -13 5 -10 10 3 6 15 10 25 10 11 0 93 24 182 53
90 30 197 62 238 72 86 21 160 52 160 65 0 13 -7 12 -32 -1 -51 -27 -74 -28
-102 -2 -36 33 -62 27 -58 -14 2 -24 -2 -32 -18 -36 -12 -3 -18 -1 -14 5 10
16 -39 -2 -53 -19 -7 -9 -19 -13 -28 -10 -8 4 -15 2 -15 -4 0 -6 -7 -9 -15 -5
-8 3 -15 1 -15 -4 0 -6 -7 -10 -15 -10 -9 0 -27 -7 -41 -16 -13 -9 -27 -14
-31 -10 -3 3 -1 6 5 6 7 0 12 4 12 9 0 16 -70 4 -84 -14 -8 -12 -20 -16 -35
-12 -11 3 -21 0 -21 -5 0 -17 -60 0 -78 22 -15 18 -22 19 -52 10 -39 -11 -107
-14 -160 -6 -19 3 -61 8 -94 12 -45 5 -60 11 -64 26 -5 20 -32 24 -49 7 -7 -7
-19 -8 -30 -4 -10 5 -22 9 -28 9 -5 1 -39 5 -74 10 -40 5 -72 16 -85 27 -12
11 -22 15 -26 9 -8 -13 -60 11 -60 28 0 6 -5 12 -11 12 -5 0 -7 -5 -4 -10 7
-12 -39 -9 -51 3 -4 4 -15 7 -24 7 -30 0 -69 25 -75 47 -13 53 47 103 125 103
22 0 40 5 40 10 0 17 36 11 60 -10 12 -11 26 -17 30 -15 5 3 10 0 12 -6 6 -18
78 -21 78 -3 0 24 -4 29 -27 26 -12 -2 -30 2 -40 8 -15 9 -15 10 6 4 26 -7 83
7 146 36 45 20 150 56 268 90 60 18 82 29 93 49 8 14 13 18 10 9 -4 -14 0 -18
19 -18 30 0 35 -33 8 -49 -16 -9 -16 -12 -3 -21 23 -15 30 -12 30 15 0 25 23
35 35 15 3 -5 17 -10 30 -10 12 0 26 -7 29 -16 4 -12 2 -15 -9 -10 -8 3 -15 1
-15 -5 0 -5 -6 -9 -12 -8 -30 4 -48 -2 -48 -15 0 -8 -6 -17 -12 -20 -7 -3 0
-4 17 -3 25 2 29 -1 30 -25 0 -14 2 -28 5 -31 3 -2 33 -7 67 -11 l62 -7 20 47
c12 26 20 49 18 50 -2 2 -19 6 -38 10 -32 5 -33 5 -15 -10 11 -9 16 -16 10
-16 -5 0 -2 -5 6 -11 13 -9 12 -10 -2 -5 -10 3 -24 -1 -31 -9 -11 -11 -17 -11
-26 -2 -10 9 -12 8 -9 -7 1 -10 -3 -21 -11 -24 -8 -2 -11 0 -8 6 4 5 -3 22
-15 38 -22 27 -22 27 -1 22 32 -8 51 8 45 38 -4 24 -3 26 19 18 26 -8 38 -8
84 0 18 4 23 3 12 -2 -16 -7 -16 -8 3 -25 19 -16 20 -16 20 13 0 34 15 47 35
30 8 -6 19 -9 25 -5 6 4 22 4 36 1 28 -7 34 -45 7 -44 -10 1 -29 -2 -42 -6
-20 -7 -23 -5 -18 8 7 18 -1 20 -23 6 -8 -5 -10 -10 -4 -10 17 0 27 -31 14
-44 -7 -7 -10 -4 -11 10 0 18 -1 18 -9 -1 -5 -11 -9 -14 -9 -7 -1 19 -19 14
-31 -9 -13 -24 -5 -38 12 -21 7 7 16 12 20 12 16 0 -33 -40 -49 -41 -17 0 -17
-1 0 -8 10 -4 18 -11 18 -16 -1 -6 2 -10 7 -11 4 0 18 -5 31 -11 18 -7 21 -12
11 -18 -20 -12 -90 -24 -84 -14 5 9 -19 14 -46 10 -8 -2 -32 -4 -52 -6 -21 -1
-45 -3 -55 -4 -14 -1 -14 -3 2 -21 10 -12 24 -19 29 -17 6 3 22 0 36 -6 29
-11 90 -9 106 4 6 5 19 7 28 3 9 -3 22 -1 30 5 7 6 21 8 31 5 14 -6 16 -3 10
14 -10 34 38 30 53 -3 8 -18 19 -25 39 -25 26 1 27 1 8 12 -11 6 -22 12 -24
14 -1 1 4 13 13 26 9 12 16 19 16 14 0 -5 7 -3 15 4 21 17 2 29 -37 25 -28 -4
-39 9 -15 18 9 3 9 7 0 17 -6 7 -9 19 -6 26 7 19 33 18 33 -1 0 -10 10 -15 30
-15 17 0 30 -5 30 -12 0 -9 4 -8 10 2 5 8 10 10 10 4 0 -6 11 -16 25 -22 28
-13 34 -32 10 -32 -8 0 -15 -7 -15 -15 0 -34 91 -49 109 -17 10 16 10 16 11 0
0 -20 15 -24 25 -8 3 6 1 10 -5 10 -8 0 -8 6 0 21 11 19 12 19 24 4 17 -23 51
-6 60 30 5 19 13 25 34 26 23 2 24 2 4 6 -12 2 -20 9 -17 14 3 5 -1 6 -9 3 -9
-3 -16 -1 -16 5 0 6 6 11 13 11 8 0 21 8 30 18 13 14 14 21 5 30 -15 15 -32
16 -23 2 12 -20 -11 -9 -54 25 -24 19 -50 35 -57 35 -7 0 -15 8 -17 18 -4 16
-5 16 -6 -1 0 -10 -6 -15 -11 -12 -13 8 -38 -17 -32 -33 5 -16 -8 -15 -30 2
-10 7 -15 16 -11 19 3 4 -1 7 -11 7 -9 0 -28 -12 -42 -27 -23 -25 -25 -25 -43
-9 -11 10 -17 24 -15 31 6 14 -25 25 -73 25 -17 0 -35 4 -38 10 -3 5 -18 7
-34 4 -19 -4 -33 0 -46 12 -17 17 -18 17 -31 0 -9 -12 -20 -17 -35 -13 -12 3
-29 1 -39 -5 -14 -9 -30 -8 -66 4 l-49 15 35 7 c19 4 53 16 76 26 22 10 57 22
77 25 l37 7 0 114 c0 63 -1 114 -2 114 -2 -1 -50 -13 -108 -29z m422 -356 c0
-5 -5 -11 -11 -13 -6 -2 -11 4 -11 13 0 9 5 15 11 13 6 -2 11 -8 11 -13z m88
-5 c0 -5 -5 -10 -10 -10 -6 0 -10 -6 -9 -12 3 -18 -11 -48 -23 -48 -5 0 -7 4
-4 9 6 10 -35 24 -43 15 -3 -3 2 -10 12 -15 21 -12 22 -29 1 -29 -8 0 -12 5
-9 10 3 6 -5 14 -19 20 -14 5 -26 14 -26 19 0 6 6 8 14 5 7 -3 16 2 19 10 8
21 26 20 49 -1 11 -9 18 -11 18 -5 0 7 -5 12 -10 12 -15 0 12 29 28 30 6 0 12
-4 12 -10z m-140 -36 c0 -8 -4 -12 -10 -9 -5 3 -10 10 -10 16 0 5 5 9 10 9 6
0 10 -7 10 -16z m-150 -4 c0 -5 -8 -10 -17 -10 -15 0 -16 2 -3 10 19 12 20 12
20 0z m130 -10 c0 -5 -4 -10 -10 -10 -5 0 -10 5 -10 10 0 6 5 10 10 10 6 0 10
-4 10 -10z m240 -21 c0 -5 -4 -9 -10 -9 -5 0 -10 7 -10 16 0 8 5 12 10 9 6 -3
10 -10 10 -16z m-120 -69 c0 -5 -7 -10 -15 -10 -8 0 -15 5 -15 10 0 6 7 10 15
10 8 0 15 -4 15 -10z m-567 -337 c-13 -2 -35 -2 -50 0 -16 2 -5 4 22 4 28 0
40 -2 28 -4z m-490 -284 l-7 -44 -8 39 c-6 28 -5 42 4 47 18 11 19 6 11 -42z
m275 9 c-6 -17 -50 -27 -127 -29 -94 -2 -108 -6 -114 -37 -3 -15 -2 -29 2 -32
5 -3 8 -13 8 -23 0 -13 -3 -15 -11 -7 -6 6 -11 35 -11 64 l0 53 70 -5 c46 -3
87 1 120 11 62 19 68 20 63 5z m-258 -177 c0 -12 -9 -20 -25 -23 -30 -6 -34 8
-5 17 11 3 20 11 20 16 0 5 2 9 5 9 3 0 5 -8 5 -19z m-200 -35 c0 -2 -7 -6
-15 -10 -8 -3 -15 -1 -15 4 0 6 7 10 15 10 8 0 15 -2 15 -4z m-40 -60 c0 -3
-7 -12 -16 -20 -12 -13 -18 -13 -29 -3 -11 10 -8 13 14 18 14 4 27 7 29 8 1 0
2 -1 2 -3z"/>
<path d="M3705 1640 c-43 -11 -89 -30 -84 -35 2 -2 36 7 74 20 67 22 73 31 10
15z"/>
<path d="M3560 1601 c-37 -20 -92 -41 -110 -41 -10 0 -21 -4 -25 -10 -3 -5
-24 -7 -45 -5 -28 2 -40 0 -40 -10 0 -7 -10 -15 -22 -18 -13 -3 -52 -15 -87
-28 -52 -19 -68 -21 -93 -11 -25 9 -29 9 -24 -4 3 -8 -1 -14 -9 -14 -8 0 -15
-4 -15 -9 0 -10 -39 -27 -54 -23 -4 2 -33 -7 -63 -18 -31 -11 -64 -18 -75 -14
-13 4 -18 2 -14 -4 3 -6 -6 -13 -22 -17 -15 -3 -50 -17 -77 -30 -26 -14 -55
-25 -63 -25 -9 0 -13 -3 -9 -6 3 -3 52 10 109 29 57 19 119 38 138 42 19 4 40
11 45 15 6 4 26 10 45 14 19 3 58 15 85 26 28 10 90 30 138 45 48 14 86 29 83
33 -2 4 12 8 33 9 42 3 214 67 204 76 -8 9 -14 8 -33 -2z"/>
<path d="M3355 1466 c-165 -57 -371 -127 -459 -157 -132 -45 -153 -55 -130
-60 24 -5 20 -7 -18 -8 -27 0 -63 -10 -83 -21 -20 -11 -40 -18 -45 -15 -5 3
-62 -13 -127 -36 -65 -22 -149 -51 -188 -64 -82 -27 -230 -82 -262 -97 -28
-14 -30 -28 -3 -28 11 0 20 5 20 11 0 5 5 7 10 4 6 -3 10 -2 10 4 0 5 11 8 25
6 14 -1 25 1 25 5 0 5 8 7 17 6 16 -3 18 -14 17 -93 l-1 -90 78 25 c44 15 79
30 79 34 0 7 -40 12 -79 11 -10 -1 -10 2 -2 10 6 6 29 12 51 12 21 0 34 3 28
6 -12 8 11 17 62 23 19 3 52 12 73 20 20 9 37 13 37 8 0 -5 -34 -19 -75 -32
-41 -13 -75 -27 -75 -32 0 -12 41 -10 79 3 24 8 39 9 54 1 40 -20 112 -19 104
1 -4 10 13 19 54 32 53 15 67 27 38 31 -5 1 -15 2 -21 3 -28 4 106 39 147 39
45 -1 75 14 75 38 0 8 -7 14 -16 14 -8 0 -12 5 -9 11 4 6 13 8 20 5 14 -5 45
23 45 41 0 6 7 14 16 17 22 8 24 8 24 -7 0 -14 -41 -53 -52 -49 -5 1 -8 -7 -8
-18 0 -26 12 -25 41 3 l24 24 340 -7 c187 -4 345 -6 351 -3 7 2 11 80 13 230
1 125 5 231 7 235 8 13 1 11 -311 -96z m-495 -276 c-8 -5 -22 -9 -30 -9 -10 0
-8 3 5 9 27 12 43 12 25 0z m-240 -20 c0 -5 -2 -10 -4 -10 -3 0 -8 5 -11 10
-3 6 -1 10 4 10 6 0 11 -4 11 -10z m148 3 c-16 -2 -40 -2 -55 0 -16 2 -3 4 27
4 30 0 43 -2 28 -4z m-171 -55 c-3 -7 -5 -2 -5 12 0 14 2 19 5 13 2 -7 2 -19
0 -25z m150 -10 c-3 -8 -6 -5 -6 6 -1 11 2 17 5 13 3 -3 4 -12 1 -19z m-27
-25 c0 -19 -13 -9 -16 12 -1 8 2 13 7 9 5 -3 9 -12 9 -21z"/>
<path d="M4123 1563 c9 -2 23 -2 30 0 6 3 -1 5 -18 5 -16 0 -22 -2 -12 -5z"/>
<path d="M4180 1550 c-8 -5 -10 -10 -5 -10 6 0 17 5 25 10 8 5 11 10 5 10 -5
0 -17 -5 -25 -10z"/>
<path d="M2140 1480 c0 -5 5 -10 11 -10 5 0 7 5 4 10 -3 6 -8 10 -11 10 -2 0
-4 -4 -4 -10z"/>
<path d="M4795 1460 c-4 -6 -14 -9 -22 -6 -21 9 -64 -4 -56 -17 4 -6 0 -8 -9
-4 -9 3 -24 -1 -35 -8 -10 -8 -14 -15 -10 -15 5 0 88 -13 185 -29 98 -16 213
-35 257 -41 94 -14 102 -18 78 -36 -35 -27 68 -17 133 13 33 15 64 27 69 27 6
1 10 10 10 21 0 18 -11 22 -90 33 -49 7 -121 13 -159 15 -45 1 -71 6 -74 15
-2 8 -24 12 -60 12 -54 0 -142 12 -188 26 -12 3 -25 1 -29 -6z m98 -32 c10 -5
17 -11 15 -13 -6 -6 -92 17 -103 27 -12 12 62 0 88 -14z"/>
<path d="M5288 1423 c7 -3 16 -2 19 1 4 3 -2 6 -13 5 -11 0 -14 -3 -6 -6z"/>
<path d="M2513 1397 c4 -10 7 -24 7 -30 0 -8 3 -8 11 0 9 9 7 16 -7 30 -17 17
-18 17 -11 0z"/>
<path d="M4267 1386 c-9 -23 -126 -76 -169 -76 -41 0 -51 -15 -17 -25 17 -6
19 -9 8 -16 -8 -5 3 -7 29 -4 24 2 49 8 55 13 7 5 48 24 92 42 84 34 103 45
70 38 -12 -2 -29 6 -41 20 -17 17 -23 19 -27 8z m-27 -51 c-7 -8 -16 -15 -21
-15 -5 0 -1 8 9 18 20 22 31 19 12 -3z"/>
<path d="M1282 1373 c-21 -8 -4 -21 24 -15 19 3 22 7 12 13 -14 10 -17 10 -36
2z"/>
<path d="M1982 1363 c2 -10 11 -19 21 -21 16 -3 17 -1 7 17 -13 25 -33 28 -28
4z"/>
<path d="M4150 1369 c0 -5 5 -7 10 -4 6 3 10 8 10 11 0 2 -4 4 -10 4 -5 0 -10
-5 -10 -11z"/>
<path d="M4190 1359 c0 -5 5 -7 10 -4 6 3 10 8 10 11 0 2 -4 4 -10 4 -5 0 -10
-5 -10 -11z"/>
<path d="M2045 1351 c-3 -6 4 -9 15 -8 11 1 20 5 20 9 0 11 -28 10 -35 -1z"/>
<path d="M1730 1342 c-8 -4 -16 -13 -18 -20 -2 -10 2 -10 18 -2 11 6 20 15 20
20 0 11 1 11 -20 2z"/>
<path d="M2506 1337 c3 -10 9 -15 12 -12 3 3 0 11 -7 18 -10 9 -11 8 -5 -6z"/>
<path d="M1622 1333 c-6 -3 -10 -8 -7 -13 5 -9 55 -1 55 9 0 8 -30 10 -48 4z"/>
<path d="M1880 1318 c0 -12 26 -39 37 -37 20 3 33 -2 31 -12 -4 -14 21 -19 47
-8 l20 8 -20 1 c-29 1 -60 26 -43 34 7 3 3 4 -9 2 -13 -2 -23 -1 -23 4 0 4 -9
10 -20 13 -11 3 -20 1 -20 -5z"/>
<path d="M1980 1320 c0 -5 7 -10 15 -10 8 0 15 5 15 10 0 6 -7 10 -15 10 -8 0
-15 -4 -15 -10z"/>
<path d="M2634 1323 c9 -9 -19 -30 -33 -25 -9 3 -12 1 -7 -6 4 -7 1 -12 -8
-12 -8 0 -19 -6 -23 -14 -4 -8 -27 -16 -51 -19 -24 -2 -48 -9 -55 -16 -6 -6
-20 -11 -32 -11 -11 0 -31 -7 -43 -16 -13 -9 -31 -13 -42 -9 -11 4 -20 2 -20
-4 0 -5 -17 -15 -37 -21 -21 -6 -52 -18 -70 -26 -17 -8 -38 -14 -46 -14 -8 0
-20 -6 -26 -14 -10 -12 -6 -13 31 -1 56 17 176 60 208 73 14 6 85 29 158 52
99 30 132 45 128 55 -2 8 0 16 7 18 7 2 -1 6 -16 9 -15 3 -26 3 -23 1z"/>
<path d="M4157 1247 l-48 -21 58 -13 c32 -7 87 -16 123 -19 36 -3 117 -16 180
-30 122 -26 192 -40 252 -50 38 -7 75 4 173 52 28 13 87 38 133 55 45 17 82
35 82 40 0 16 -16 11 -128 -41 -60 -27 -119 -50 -131 -50 -25 0 -253 36 -476
75 -77 14 -147 25 -155 24 -8 -1 -37 -10 -63 -22z"/>
<path d="M893 1231 c-36 -20 -56 -25 -68 -19 -18 11 -52 2 -41 -10 4 -4 11 -7
14 -7 4 0 28 -7 55 -14 73 -21 71 -35 -3 -28 -75 6 -173 -23 -163 -49 3 -9 -1
-14 -13 -15 -16 0 -15 -2 4 -9 19 -8 21 -13 12 -30 -13 -25 -7 -36 32 -56 25
-13 32 -13 39 -3 4 8 3 16 -3 20 -7 5 -7 9 1 13 11 7 58 -19 76 -42 10 -12 26
-12 73 3 24 8 31 45 7 45 -9 0 -12 6 -9 15 5 11 -1 15 -18 15 -26 0 -48 17
-48 37 0 7 11 13 25 13 15 0 25 -6 25 -14 0 -8 7 -16 15 -20 8 -3 15 -11 15
-19 0 -10 9 -12 32 -9 l32 5 -23 18 c-13 11 -19 19 -13 19 14 0 26 37 24 71
-2 27 25 49 37 30 10 -16 66 -17 90 -2 12 8 12 12 2 25 -18 21 -48 20 -54 -1
-4 -16 -5 -16 -6 1 0 10 7 24 16 31 15 11 14 13 -13 11 -17 0 -42 -9 -57 -19
-35 -23 -44 -22 -22 3 17 19 17 20 -1 19 -10 0 -42 -13 -71 -28z m-103 -166
c0 -9 -6 -12 -15 -9 -8 4 -12 10 -9 15 8 14 24 10 24 -6z m55 -21 c0 -5 -8
-10 -17 -12 -11 -2 -18 3 -18 11 0 9 8 14 18 13 9 -2 17 -7 17 -12z"/>
<path d="M3830 1240 c-8 -5 4 -11 29 -15 22 -4 39 -10 36 -15 -3 -4 12 -7 33
-7 20 1 60 -3 87 -7 73 -12 50 2 -31 19 -38 8 -85 19 -105 24 -21 5 -43 5 -49
1z"/>
<path d="M4030 1240 c-13 -8 -12 -10 3 -10 9 0 17 5 17 10 0 12 -1 12 -20 0z"/>
<path d="M2013 1214 c9 -3 17 -12 17 -21 0 -8 6 -13 13 -10 24 8 12 32 -18 34
-16 1 -22 -1 -12 -3z"/>
<path d="M5066 1195 c-11 -8 -16 -15 -10 -15 5 0 18 7 28 15 11 8 16 15 10 15
-5 0 -18 -7 -28 -15z"/>
<path d="M1139 1191 c9 -6 11 -16 6 -32 -7 -23 -7 -23 16 -7 38 25 37 48 -3
48 -22 0 -29 -3 -19 -9z"/>
<path d="M1085 1170 c-3 -5 -15 -10 -26 -10 -10 0 -19 -4 -19 -10 0 -5 -7 -10
-16 -10 -8 0 -12 4 -9 10 3 6 -1 7 -9 4 -9 -3 -16 -13 -16 -21 0 -8 4 -12 9
-9 5 4 12 0 14 -6 4 -9 8 -10 14 -2 16 21 48 33 65 23 23 -13 33 7 14 26 -9 9
-17 11 -21 5z"/>
<path d="M486 1139 c-19 -18 -15 -39 9 -39 7 0 15 -10 17 -22 4 -27 40 -38
103 -30 l48 5 -27 14 c-18 10 -26 20 -22 30 5 12 1 14 -16 10 -12 -4 -28 -1
-35 5 -10 8 -17 8 -24 1 -8 -8 -7 -13 0 -17 6 -4 11 -15 11 -24 -1 -15 -3 -14
-16 3 -8 11 -13 30 -11 42 6 32 -14 44 -37 22z"/>
<path d="M1242 1108 c5 -15 28 -23 28 -10 0 5 -7 13 -16 16 -10 4 -14 1 -12
-6z"/>
<path d="M5450 1077 c-236 -114 -466 -225 -533 -256 -89 -41 -136 -63 -297
-139 -58 -27 -119 -63 -136 -79 -19 -19 -46 -32 -73 -37 -23 -3 -39 -11 -36
-16 3 -5 0 -7 -8 -4 -8 3 -53 -13 -101 -35 -47 -23 -87 -41 -90 -41 -6 0 -345
-165 -676 -328 l-285 -141 641 -1 c558 0 643 2 654 15 7 8 21 15 31 15 11 0
19 4 19 9 0 10 100 55 157 70 23 7 45 16 48 21 3 6 15 10 25 10 10 0 31 6 47
14 54 27 108 33 184 21 41 -7 117 -18 169 -24 52 -7 111 -16 130 -21 75 -17
127 -20 127 -6 0 8 -6 12 -14 9 -7 -3 -13 1 -13 8 0 18 -58 57 -108 75 -22 7
-69 27 -106 43 -36 17 -71 31 -76 31 -6 0 -10 6 -10 13 0 12 -63 52 -84 52 -6
1 -10 6 -9 13 2 7 -4 12 -13 12 -10 0 -14 7 -12 22 2 16 13 25 38 31 19 5 61
18 93 28 31 11 61 18 65 15 14 -9 82 16 82 30 0 7 -7 17 -16 22 -12 7 -5 9 25
9 26 0 46 6 54 16 7 9 23 17 37 19 18 2 26 10 28 28 2 13 11 30 20 37 16 12
16 14 -2 24 -18 11 -18 12 2 28 25 20 54 125 38 141 -8 8 -4 12 12 16 21 6 22
10 22 130 0 68 -1 124 -2 123 -2 0 -23 -10 -48 -22z m-993 -523 c-3 -3 -12 -4
-19 -1 -8 3 -5 6 6 6 11 1 17 -2 13 -5z"/>
<path d="M1610 1086 c0 -2 9 -6 20 -9 11 -3 20 -1 20 4 0 5 -9 9 -20 9 -11 0
-20 -2 -20 -4z"/>
<path d="M1000 1065 c-16 -20 -1 -39 26 -33 25 4 25 34 0 30 -11 -2 -15 1 -11
7 10 16 -1 13 -15 -4z"/>
<path d="M1840 1065 c0 -21 30 -31 40 -14 11 17 3 29 -21 29 -10 0 -19 -7 -19
-15z"/>
<path d="M1940 1042 c-14 -9 -36 -23 -50 -30 -25 -12 -25 -12 6 -8 18 3 46 11
64 18 27 11 30 15 18 25 -11 10 -19 9 -38 -5z"/>
<path d="M3360 1011 c0 -10 26 -9 36 2 4 4 -2 7 -14 7 -12 0 -22 -4 -22 -9z"/>
<path d="M1080 997 c0 -8 -12 -23 -27 -33 l-28 -18 32 -13 c35 -14 93 -7 93
11 0 6 5 4 10 -4 7 -12 12 -12 22 -2 6 6 28 12 48 13 26 1 30 3 15 8 -11 4
-36 14 -55 23 -56 26 -110 33 -110 15z m20 -37 c0 -5 -5 -10 -11 -10 -5 0 -7
5 -4 10 3 6 8 10 11 10 2 0 4 -4 4 -10z"/>
<path d="M1417 1004 c-15 -15 -6 -24 24 -24 20 0 29 4 27 13 -5 14 -40 21 -51
11z"/>
<path d="M3526 1001 c-7 -11 -53 -20 -61 -13 -11 11 -30 9 -42 -3 -10 -10 -9
-15 5 -20 14 -5 14 -7 2 -15 -8 -6 -28 -10 -45 -10 -41 0 -60 -13 -43 -27 21
-18 207 -62 436 -103 57 -10 109 -24 117 -30 30 -25 107 -15 202 26 51 21 93
45 93 52 0 6 7 12 16 12 8 0 12 5 9 10 -3 6 -22 10 -41 10 -19 0 -79 9 -132
19 -53 11 -135 27 -182 36 -47 9 -139 27 -204 41 -139 28 -123 26 -130 15z
m-39 -38 c0 -18 -32 -16 -47 2 -11 13 -9 15 17 13 16 -1 30 -8 30 -15z"/>
<path d="M1326 993 c-14 -15 -4 -33 18 -33 18 0 24 5 23 18 -1 17 -29 27 -41
15z"/>
<path d="M2830 989 c0 -5 5 -7 10 -4 6 3 10 8 10 11 0 2 -4 4 -10 4 -5 0 -10
-5 -10 -11z"/>
<path d="M3290 979 c0 -6 -9 -9 -20 -6 -13 3 -20 0 -20 -9 0 -18 8 -17 50 6
30 16 32 19 13 20 -13 0 -23 -5 -23 -11z"/>
<path d="M896 951 l-28 -29 52 -3 c43 -3 55 -1 66 16 14 19 12 20 -16 23 -17
2 -28 8 -25 13 14 21 -24 7 -49 -20z"/>
<path d="M3208 958 c-16 -5 -28 -14 -28 -20 0 -6 6 -6 15 2 8 7 21 10 28 7 8
-3 14 1 14 9 0 8 -1 14 -1 13 -1 0 -13 -5 -28 -11z"/>
<path d="M1325 940 c3 -5 16 -10 28 -10 18 0 19 2 7 10 -20 13 -43 13 -35 0z"/>
<path d="M1380 940 c0 -5 7 -10 15 -10 8 0 15 5 15 10 0 6 -7 10 -15 10 -8 0
-15 -4 -15 -10z"/>
<path d="M3963 943 c9 -2 23 -2 30 0 6 3 -1 5 -18 5 -16 0 -22 -2 -12 -5z"/>
<path d="M1215 915 l-30 -13 44 -12 c50 -13 74 -7 69 17 -4 23 -43 26 -83 8z"/>
<path d="M3130 920 c0 -5 -7 -7 -15 -4 -8 4 -15 1 -15 -5 0 -6 -8 -8 -17 -4
-15 5 -16 3 -6 -7 9 -10 16 -10 25 -2 13 10 18 12 38 12 6 0 10 5 10 10 0 6
-4 10 -10 10 -5 0 -10 -4 -10 -10z"/>
<path d="M2889 915 c-1 -3 -2 -9 -3 -14 -1 -11 -57 -61 -68 -61 -3 0 -15 -3
-25 -6 -10 -3 -6 2 9 10 15 9 25 23 24 33 -2 10 -1 12 1 6 3 -10 8 -10 19 1
18 19 18 21 -6 23 -27 2 -175 -63 -159 -70 10 -4 9 -6 -3 -6 -10 -1 -22 -10
-28 -20 -13 -26 -13 -31 5 -31 31 0 13 -19 -40 -40 -30 -12 -55 -29 -55 -36 0
-19 16 -18 24 1 3 8 10 15 16 15 6 0 9 -4 6 -9 -6 -9 51 11 134 46 19 9 69 28
110 43 150 56 170 65 170 72 0 13 -27 9 -82 -12 -29 -11 -54 -20 -55 -20 -6 0
13 47 21 52 7 5 7 8 -2 8 -7 0 -10 5 -7 10 3 6 4 10 1 10 -3 0 -7 -2 -7 -5z
m-82 -38 c0 -7 -10 -14 -21 -14 -21 -2 -21 -2 -2 13 24 17 23 17 23 1z m-58
-50 c11 4 13 3 6 -5 -14 -14 -85 -27 -85 -15 0 14 43 32 54 23 5 -5 16 -6 25
-3z"/>
<path d="M2350 860 c-9 -6 -10 -10 -3 -10 6 0 15 5 18 10 8 12 4 12 -15 0z"/>
<path d="M2258 835 c-3 -3 -25 -9 -48 -13 -24 -4 -46 -14 -48 -21 -4 -11 3
-13 29 -7 19 3 36 11 37 16 2 6 7 8 12 5 4 -3 13 2 20 10 12 14 10 22 -2 10z"/>
<path d="M2584 776 c-10 -8 -16 -18 -11 -22 4 -4 7 -2 7 4 0 6 7 9 17 5 12 -5
14 -3 8 7 -6 10 -4 12 9 7 10 -4 15 -3 11 3 -8 14 -18 13 -41 -4z"/>
<path d="M275 770 c-7 -11 20 -61 33 -59 28 5 42 -3 42 -23 0 -18 -2 -20 -10
-8 -5 8 -12 11 -16 8 -4 -4 -15 -3 -25 3 -14 7 -25 6 -41 -6 -19 -13 -20 -15
-5 -15 10 0 16 -4 12 -9 -9 -15 60 -24 84 -12 13 7 21 22 21 36 0 19 5 25 23
25 29 0 48 13 39 26 -4 6 -34 16 -67 23 -33 8 -65 16 -71 18 -7 2 -15 -1 -19
-7z m42 -116 c-3 -3 -12 -4 -19 -1 -8 3 -5 6 6 6 11 1 17 -2 13 -5z"/>
<path d="M2541 751 c-10 -6 -9 -10 5 -15 20 -8 25 -4 16 11 -4 7 -13 9 -21 4z"/>
<path d="M2465 731 c-3 -6 6 -8 22 -5 37 7 42 14 10 14 -14 0 -28 -4 -32 -9z"/>
<path d="M2740 720 c0 -5 -7 -10 -16 -10 -8 0 -37 -7 -65 -16 -65 -21 -65 -44
-1 -45 26 0 41 -3 35 -6 -7 -2 -13 -12 -13 -20 0 -11 -7 -14 -27 -9 -23 5 -25
4 -10 -4 18 -12 61 -4 53 9 -3 4 27 6 67 4 84 -4 120 -11 113 -21 -2 -4 18 -7
45 -7 30 0 53 -5 58 -13 4 -7 15 -10 24 -6 13 5 16 2 10 -12 -5 -14 -3 -16 12
-10 11 4 21 2 26 -5 4 -7 27 -12 53 -12 30 1 44 -3 39 -10 -3 -5 -1 -7 4 -4 6
4 30 -2 54 -12 24 -11 46 -18 49 -16 3 1 28 6 55 9 28 4 75 19 105 33 83 39
280 114 280 107 0 -3 -21 -15 -47 -27 -30 -13 -42 -22 -31 -25 17 -3 96 34
133 62 23 18 13 21 -16 6 -11 -6 -19 -7 -19 -1 0 5 14 14 30 20 28 9 42 31 20
31 -5 0 -83 -28 -172 -62 -90 -34 -174 -61 -188 -60 -14 1 -74 13 -135 26 -60
14 -177 39 -260 56 -82 18 -172 38 -199 46 -59 17 -66 17 -66 4z"/>
<path d="M2526 701 c-4 -5 -24 -12 -46 -16 -49 -8 -62 -25 -20 -25 21 0 29 4
24 12 -5 8 -2 9 10 5 17 -7 56 11 56 25 0 11 -18 10 -24 -1z"/>
<path d="M5450 684 c0 -8 5 -12 10 -9 6 3 10 10 10 16 0 5 -4 9 -10 9 -5 0
-10 -7 -10 -16z"/>
<path d="M2246 682 c-5 -9 29 -18 258 -72 146 -35 196 -35 66 -1 -47 12 -126
35 -175 52 -90 29 -139 36 -149 21z"/>
<path d="M590 670 c0 -5 5 -10 10 -10 6 0 10 5 10 10 0 6 -4 10 -10 10 -5 0
-10 -4 -10 -10z"/>
<path d="M505 660 c-4 -7 3 -8 22 -4 38 9 42 14 10 14 -14 0 -29 -5 -32 -10z"/>
<path d="M1982 645 c0 -16 2 -22 5 -12 2 9 2 23 0 30 -3 6 -5 -1 -5 -18z"/>
<path d="M361 631 c-9 -6 -10 -11 -2 -15 13 -8 31 1 31 15 0 11 -11 11 -29 0z"/>
<path d="M4453 600 c-13 -5 -23 -12 -23 -15 0 -9 16 -5 36 10 22 16 19 18 -13
5z"/>
<path d="M788 573 c6 -2 18 -2 25 0 6 3 1 5 -13 5 -14 0 -19 -2 -12 -5z"/>
<path d="M3065 475 c23 -7 61 -15 85 -19 34 -4 27 -1 -25 14 -78 21 -123 25
-60 5z"/>
<path d="M2075 379 c-30 -20 -59 -20 -123 -3 -21 6 -22 4 -17 -26 5 -29 4 -32
-10 -20 -13 11 -15 10 -10 -3 5 -11 -3 -17 -34 -22 -23 -4 -41 -11 -41 -16 0
-6 -13 -15 -30 -20 -16 -6 -30 -14 -30 -19 0 -12 77 -31 230 -57 19 -3 39 -11
45 -18 5 -7 28 -16 50 -18 22 -3 63 -11 90 -17 28 -6 60 -11 72 -12 13 0 21
-4 18 -9 -3 -4 11 -11 31 -15 21 -4 47 -12 59 -18 11 -6 57 -11 100 -11 77 1
85 3 202 59 116 56 151 85 126 105 -4 4 -82 24 -173 45 -91 21 -230 53 -310
71 -202 47 -210 48 -245 24z m330 -179 c3 -5 -1 -10 -9 -10 -9 0 -16 5 -16 10
0 6 4 10 9 10 6 0 13 -4 16 -10z"/>
<path d="M1745 361 c-16 -9 -56 -28 -87 -40 -60 -24 -73 -37 -38 -37 11 0 20
6 20 13 0 7 8 13 18 13 14 0 15 -2 2 -10 -24 -16 -3 -11 43 9 23 10 61 26 85
36 23 10 42 22 42 27 0 14 -53 7 -85 -11z m62 3 c-3 -3 -12 -4 -19 -1 -8 3 -5
6 6 6 11 1 17 -2 13 -5z m-42 -14 c-3 -5 -12 -10 -18 -10 -7 0 -6 4 3 10 19
12 23 12 15 0z"/>
<path d="M1900 360 c-12 -7 -10 -9 7 -7 12 0 19 5 17 9 -6 10 -6 10 -24 -2z"/>
<path d="M1596 352 c-3 -5 1 -9 9 -9 8 0 12 4 9 9 -3 4 -7 8 -9 8 -2 0 -6 -4
-9 -8z"/>
<path d="M2683 353 c-20 -7 -15 -23 6 -23 26 0 51 10 51 21 0 9 -36 11 -57 2z"/>
<path d="M1544 274 c-19 -15 -19 -15 1 -6 11 5 27 12 35 15 13 5 13 6 -1 6 -8
1 -24 -6 -35 -15z"/>
<path d="M1440 235 c-30 -13 -50 -24 -44 -25 14 0 104 39 104 45 0 7 2 7 -60
-20z"/>
<path d="M1300 235 c0 -8 8 -11 20 -8 11 3 20 7 20 8 0 1 -9 5 -20 8 -12 3
-20 0 -20 -8z"/>
<path d="M1620 219 c0 -5 5 -7 10 -4 6 3 10 8 10 11 0 2 -4 4 -10 4 -5 0 -10
-5 -10 -11z"/>
<path d="M1346 201 c-11 -4 -15 -10 -10 -13 5 -4 18 0 29 8 20 15 12 17 -19 5z"/>
<path d="M1147 188 c-16 -12 -15 -13 6 -13 13 0 24 6 24 13 0 6 -3 12 -7 12
-3 0 -14 -6 -23 -12z"/>
<path d="M921 145 c-24 -13 -52 -26 -62 -28 -32 -9 -21 -24 18 -25 21 -1 52 8
75 20 38 22 53 43 21 31 -16 -6 -16 -5 -4 10 18 22 6 20 -48 -8z m14 -25 c3
-5 1 -10 -4 -10 -6 0 -11 5 -11 10 0 6 2 10 4 10 3 0 8 -4 11 -10z"/>
<path d="M1037 139 c-4 -13 -11 -20 -20 -16 -7 3 -33 -8 -58 -25 -29 -20 -52
-28 -69 -25 -21 4 -22 4 -8 -7 15 -11 13 -14 -20 -26 -32 -11 -34 -14 -17 -20
12 -4 -6 -7 -44 -8 -35 0 -66 -3 -69 -6 -3 -4 31 -6 74 -6 61 0 91 5 124 21
25 12 56 25 70 30 81 25 282 108 264 109 -11 0 -68 -18 -127 -40 -58 -22 -112
-40 -119 -39 -7 0 14 10 47 23 71 27 79 50 19 54 -35 3 -42 0 -47 -19z m-77
-74 c0 -9 -64 -45 -79 -45 -8 0 6 11 30 24 51 28 49 28 49 21z"/>
<path d="M150 115 c-30 -12 -76 -30 -102 -39 -29 -11 -48 -24 -48 -33 0 -10 6
-13 16 -9 9 3 20 6 25 6 6 0 7 5 3 12 -5 7 -2 9 9 5 18 -7 113 28 110 41 -1 5
8 8 20 7 28 -2 77 14 77 26 0 15 -52 8 -110 -16z m-70 -45 c0 -5 -5 -10 -11
-10 -5 0 -7 5 -4 10 3 6 8 10 11 10 2 0 4 -4 4 -10z"/>
<path d="M418 133 c7 -3 16 -2 19 1 4 3 -2 6 -13 5 -11 0 -14 -3 -6 -6z"/>
<path d="M2255 33 c-11 -3 -29 -12 -40 -20 -19 -13 -18 -14 10 -7 17 3 37 13
45 20 8 8 12 13 10 13 -3 -1 -14 -4 -25 -6z"/>
</g>
</svg>
