<?xml version="1.0" standalone="no"?>
<!DOCTYPE svg PUBLIC "-//W3C//DTD SVG 20010904//EN"
 "http://www.w3.org/TR/2001/REC-SVG-20010904/DTD/svg10.dtd">
<svg version="1.0" xmlns="http://www.w3.org/2000/svg"
 width="400.000000pt" height="274.000000pt" viewBox="0 0 400.000000 274.000000"
 preserveAspectRatio="xMidYMid meet">

<g transform="translate(0.000000,274.000000) scale(0.100000,-0.100000)"
fill="#000000" stroke="none">
<path d="M2077 1969 c7 -7 15 -10 18 -7 3 3 -2 9 -12 12 -14 6 -15 5 -6 -5z"/>
<path d="M1840 1916 c0 -23 2 -23 40 -14 42 11 45 33 4 25 -13 -2 -24 0 -24 4
0 5 -4 9 -10 9 -5 0 -10 -11 -10 -24z"/>
<path d="M2165 1924 c-44 -6 -102 -15 -130 -19 -27 -3 -59 -10 -70 -15 -18 -8
-49 -15 -145 -35 -14 -3 -54 -12 -90 -20 -36 -8 -77 -15 -93 -15 -15 0 -36 -5
-46 -12 -18 -11 -61 -4 -116 18 -18 7 -19 6 -5 -10 13 -16 12 -20 -3 -31 -9
-7 -17 -14 -17 -17 0 -7 45 -3 59 6 11 7 13 4 9 -12 -5 -18 -3 -20 10 -13 18
9 24 11 43 11 6 0 8 8 5 18 -5 15 -5 15 6 1 8 -10 36 -18 76 -22 l63 -5 -6 29
c-8 35 8 44 60 35 46 -9 45 -30 -2 -34 -34 -2 -36 -1 -18 12 19 13 18 14 -7 9
-20 -4 -24 -9 -20 -25 4 -17 12 -19 58 -16 38 2 54 -1 54 -9 0 -7 -10 -13 -22
-13 -13 0 -30 -5 -38 -10 -22 -14 25 -13 52 1 11 6 42 12 69 13 27 2 54 8 61
13 7 5 28 9 46 7 17 -1 32 2 32 6 0 7 2 8 72 16 27 3 46 9 44 13 -3 4 4 7 15
7 13 0 19 -7 19 -23 0 -23 -13 -28 -65 -24 -16 2 -17 0 -6 -8 11 -7 0 -14 -45
-26 -79 -22 -82 -23 -59 -24 11 0 56 8 100 19 121 30 261 58 350 69 99 12 316
27 370 24 39 -1 38 -1 -20 19 -33 11 -91 28 -130 38 -38 10 -92 25 -120 33
-28 9 -106 17 -176 20 -69 2 -130 6 -135 9 -5 2 -45 -1 -89 -8z m-269 -89 c-3
-9 -11 -13 -16 -10 -8 5 -7 11 1 21 14 18 24 11 15 -11z m769 15 c3 -5 -1 -10
-9 -10 -8 0 -18 5 -21 10 -3 6 1 10 9 10 8 0 18 -4 21 -10z m-817 -35 c0 -14
-4 -28 -9 -31 -5 -3 -6 2 -3 10 4 9 1 16 -6 16 -10 0 -10 3 0 15 16 20 18 19
18 -10z m625 18 c-7 -2 -19 -2 -25 0 -7 3 -2 5 12 5 14 0 19 -2 13 -5z m172
-3 l30 -8 -30 0 c-16 0 -43 4 -60 8 l-30 8 30 0 c17 0 44 -4 60 -8z m-265 -20
c0 -5 -4 -10 -10 -10 -5 0 -10 5 -10 10 0 6 5 10 10 10 6 0 10 -4 10 -10z m58
-1 c-16 -11 -48 -12 -48 -1 0 4 14 7 31 8 20 1 26 -2 17 -7z m-828 -9 c0 -5
-5 -10 -11 -10 -5 0 -7 5 -4 10 3 6 8 10 11 10 2 0 4 -4 4 -10z m90 6 c0 -3
-4 -8 -10 -11 -5 -3 -10 -1 -10 4 0 6 5 11 10 11 6 0 10 -2 10 -4z m540 -25
c9 -20 9 -23 0 -14 -7 6 -19 9 -26 6 -9 -3 -14 2 -14 14 0 28 26 24 40 -6z
m-749 -4 c-10 -9 -11 -8 -5 6 3 10 9 15 12 12 3 -3 0 -11 -7 -18z m159 13 c0
-5 -2 -10 -4 -10 -3 0 -8 5 -11 10 -3 6 -1 10 4 10 6 0 11 -4 11 -10z m635
-10 c-3 -5 -12 -10 -18 -10 -7 0 -6 4 3 10 19 12 23 12 15 0z"/>
<path d="M1510 1908 c-25 -6 -40 -12 -35 -14 6 -2 35 3 65 10 64 16 37 19 -30
4z"/>
<path d="M1698 1903 c-30 -3 -38 -8 -38 -24 0 -19 4 -20 43 -14 23 4 45 9 50
12 12 7 8 33 -5 31 -7 -1 -30 -3 -50 -5z m42 -17 c0 -2 -13 -6 -30 -8 -16 -3
-30 -1 -30 4 0 4 14 8 30 8 17 0 30 -2 30 -4z"/>
<path d="M1416 1891 c5 -5 22 -13 39 -17 28 -7 29 -6 13 9 -9 9 -27 17 -39 17
-14 0 -19 -4 -13 -9z"/>
<path d="M1290 1872 c0 -6 -8 -9 -17 -6 -15 5 -16 4 -3 -5 16 -11 40 3 27 16
-4 3 -7 1 -7 -5z"/>
<path d="M1188 1863 c12 -2 32 -2 45 0 12 2 2 4 -23 4 -25 0 -35 -2 -22 -4z"/>
<path d="M1345 1860 c3 -5 18 -10 32 -10 32 0 28 5 -10 14 -19 4 -26 3 -22 -4z"/>
<path d="M1516 1862 c-6 -9 65 -35 73 -27 2 3 -1 5 -9 5 -10 0 -10 3 0 15 11
13 7 15 -23 15 -20 0 -38 -4 -41 -8z"/>
<path d="M1350 1800 c-13 -9 -13 -10 0 -9 8 0 24 4 35 9 l20 9 -20 0 c-11 0
-27 -4 -35 -9z"/>
<path d="M648 1763 c7 -3 16 -2 19 1 4 3 -2 6 -13 5 -11 0 -14 -3 -6 -6z"/>
<path d="M1418 1763 c7 -3 16 -2 19 1 4 3 -2 6 -13 5 -11 0 -14 -3 -6 -6z"/>
<path d="M580 1750 c-11 -8 -7 -9 15 -4 37 8 45 14 19 14 -10 0 -26 -5 -34
-10z"/>
<path d="M2045 1740 c-3 -5 -1 -10 4 -10 6 0 11 5 11 10 0 6 -2 10 -4 10 -3 0
-8 -4 -11 -10z"/>
<path d="M320 1702 c0 -5 14 -7 30 -4 17 2 30 6 30 8 0 2 -13 4 -30 4 -16 0
-30 -4 -30 -8z"/>
<path d="M450 1690 c0 -5 5 -10 11 -10 5 0 7 5 4 10 -3 6 -8 10 -11 10 -2 0
-4 -4 -4 -10z"/>
<path d="M406 1665 c4 -8 13 -15 21 -15 13 0 13 3 3 15 -7 8 -16 15 -21 15 -5
0 -6 -7 -3 -15z"/>
<path d="M1758 1673 c6 -2 18 -2 25 0 6 3 1 5 -13 5 -14 0 -19 -2 -12 -5z"/>
<path d="M2446 1645 c-16 -12 -17 -15 -4 -15 9 0 18 7 22 15 7 18 6 18 -18 0z"/>
<path d="M3261 1656 c12 -10 60 -16 54 -6 -3 5 -18 10 -32 10 -15 0 -24 -2
-22 -4z"/>
<path d="M80 1640 c0 -5 5 -10 11 -10 5 0 7 5 4 10 -3 6 -8 10 -11 10 -2 0 -4
-4 -4 -10z"/>
<path d="M116 1624 c-6 -15 31 -40 53 -35 8 1 17 -2 20 -7 6 -10 133 -72 147
-72 4 0 -8 11 -27 25 -19 13 -40 30 -48 37 -8 7 -20 13 -25 14 -6 1 -34 13
-63 27 -41 19 -53 22 -57 11z"/>
<path d="M375 1633 c-27 -4 -81 -33 -60 -33 15 0 84 25 91 33 4 4 5 6 3 6 -2
-1 -17 -4 -34 -6z"/>
<path d="M1968 1633 c7 -3 16 -2 19 1 4 3 -2 6 -13 5 -11 0 -14 -3 -6 -6z"/>
<path d="M2648 1623 c7 -3 16 -2 19 1 4 3 -2 6 -13 5 -11 0 -14 -3 -6 -6z"/>
<path d="M256 1607 c5 -14 44 -41 44 -31 0 6 -40 44 -46 44 -2 0 -1 -6 2 -13z"/>
<path d="M3505 1611 c3 -6 -8 -20 -25 -32 -16 -13 -30 -30 -30 -40 0 -29 -27
-42 -76 -36 -26 2 -50 10 -54 16 -5 9 -13 9 -34 0 -33 -16 -17 -29 37 -29 50
0 47 -14 -10 -35 -27 -10 -57 -24 -68 -30 -11 -7 -67 -27 -125 -44 -58 -18
-112 -36 -121 -41 -9 -5 -32 -11 -50 -14 -19 -3 -79 -13 -134 -23 -55 -9 -103
-16 -107 -15 -8 2 -12 -14 -9 -31 1 -5 -3 -6 -9 -2 -6 4 -17 1 -25 -5 -8 -6
-20 -8 -26 -4 -8 4 -9 3 -5 -4 16 -26 -63 -41 -230 -46 -78 -2 -120 -8 -144
-19 -34 -17 -142 -23 -189 -10 -20 5 -22 10 -18 40 4 20 2 31 -4 28 -5 -4 -9
-12 -9 -19 0 -8 -8 -13 -17 -12 -12 0 -19 -7 -21 -22 -4 -29 -22 -37 -107 -51
-80 -13 -512 -20 -565 -9 -26 5 -23 4 10 -7 29 -10 80 -14 150 -13 58 1 167 1
243 1 75 0 137 4 137 8 0 4 8 6 18 4 9 -1 24 1 33 6 9 4 35 9 58 10 27 2 40 7
37 15 -3 8 8 9 40 3 24 -5 51 -6 61 -2 11 5 14 3 8 -6 -6 -10 -3 -11 14 -2 14
8 21 8 21 1 0 -7 6 -8 19 0 11 5 30 10 43 10 13 0 36 7 51 15 26 13 28 13 37
-8 7 -17 9 -18 9 -5 1 18 32 30 65 25 11 -2 37 -1 58 3 23 5 41 3 45 -3 3 -6
1 -7 -6 -3 -6 4 -14 1 -17 -7 -4 -10 -17 -14 -40 -12 -19 2 -32 0 -29 -5 3 -5
14 -7 25 -5 11 2 20 -1 20 -7 0 -5 6 -8 14 -5 8 3 17 -1 20 -9 9 -23 8 -24
-16 -34 -23 -10 -23 -10 2 -9 49 2 57 0 40 -12 -20 -13 -20 -13 218 55 106 31
195 56 197 56 3 0 5 8 6 18 0 10 3 12 6 5 2 -7 15 -13 27 -13 28 0 51 -39 43
-71 -6 -24 8 -49 27 -49 6 0 3 5 -6 11 -22 12 -23 29 -3 29 16 0 81 58 78 69
0 3 5 12 13 19 18 17 18 3 -1 -42 -8 -20 -12 -36 -8 -36 3 0 -4 -12 -18 -27
l-24 -28 27 24 c16 14 26 26 24 29 -2 2 5 13 15 23 14 14 18 27 13 41 -4 14
-2 18 5 14 6 -4 11 -4 11 1 0 11 -45 53 -56 53 -5 0 -2 -5 6 -11 11 -8 7 -9
-17 -4 -22 4 -33 3 -33 -5 0 -6 5 -8 10 -5 6 3 15 3 22 -1 6 -4 -10 -13 -38
-20 -27 -7 -50 -9 -52 -4 -2 4 -12 6 -23 3 -15 -4 -18 -2 -13 12 5 11 15 15
29 13 13 -3 22 0 22 8 0 8 -9 9 -29 4 -15 -5 -28 -7 -28 -4 0 3 -9 0 -20 -6
-14 -8 -20 -8 -20 0 0 6 -5 8 -10 5 -8 -5 -7 -11 1 -21 6 -8 10 -16 8 -17 -15
-10 -63 -27 -77 -27 -15 1 -15 2 2 15 16 12 17 15 4 15 -9 0 -25 3 -35 6 -11
3 -14 2 -7 -3 6 -4 13 -15 16 -24 5 -13 -12 -21 -90 -44 -112 -32 -146 -40
-120 -28 14 7 15 10 2 27 -13 18 -14 18 -14 2 0 -9 -5 -14 -10 -11 -6 4 -8 11
-4 16 3 5 2 8 -3 7 -4 -2 -10 1 -13 7 -3 5 2 10 10 11 43 3 50 5 50 15 0 6 -7
9 -15 5 -8 -3 -15 -2 -15 3 0 5 21 14 46 20 25 7 57 23 70 36 14 14 37 27 52
29 15 2 35 7 44 11 17 7 53 -17 42 -28 -3 -3 4 -3 15 0 28 7 38 23 11 18 -11
-2 -22 0 -25 6 -6 9 0 11 48 13 19 1 26 -2 23 -11 -6 -16 -4 -16 31 -1 15 6
31 12 36 13 4 2 10 4 15 5 4 1 16 2 27 1 17 -1 17 1 -5 13 l-25 15 25 2 c14 1
32 3 40 4 8 0 20 3 25 6 11 6 32 5 80 -3 17 -3 24 -3 18 -1 -7 3 -13 9 -13 14
0 6 -5 7 -12 3 -6 -4 -8 -3 -5 3 4 6 19 9 34 7 20 -3 23 -2 10 4 -15 6 -13 9
13 19 16 6 30 7 30 2 0 -16 28 -10 42 9 7 9 22 19 33 20 11 2 22 8 23 13 2 5
12 9 23 9 10 0 43 17 74 37 47 32 54 40 50 63 -4 21 0 29 20 38 14 6 25 16 25
21 0 5 10 7 23 5 20 -4 21 -4 2 5 -26 13 -58 14 -50 2z m-235 -205 c0 -3 -4
-8 -10 -11 -5 -3 -10 -1 -10 4 0 6 5 11 10 11 6 0 10 -2 10 -4z m-692 -222
c-3 -3 -21 -6 -38 -6 -30 -1 -31 -2 -15 -15 11 -7 13 -13 6 -13 -7 0 -9 -5 -5
-12 4 -6 3 -8 -4 -4 -6 3 -13 2 -16 -3 -4 -5 -2 -12 4 -16 6 -4 8 -11 4 -16
-3 -5 -10 -7 -15 -3 -5 3 -7 9 -4 14 3 5 1 11 -5 15 -12 7 -14 26 -2 24 25 -4
34 2 23 14 -15 19 -4 27 37 27 20 0 33 -3 30 -6z m-30 -66 c-2 -7 2 -12 9 -13
6 0 15 -4 20 -9 5 -5 -1 -7 -14 -3 -13 3 -23 1 -23 -5 0 -5 -5 -6 -10 -3 -7 4
-7 13 0 26 12 21 21 25 18 7z"/>
<path d="M2245 1600 l-30 -8 33 -1 c17 0 32 4 32 9 0 6 -1 9 -2 9 -2 -1 -16
-5 -33 -9z"/>
<path d="M2298 1603 c7 -3 16 -2 19 1 4 3 -2 6 -13 5 -11 0 -14 -3 -6 -6z"/>
<path d="M3373 1603 c9 -2 25 -2 35 0 9 3 1 5 -18 5 -19 0 -27 -2 -17 -5z"/>
<path d="M1355 1590 c-8 -13 5 -13 25 0 13 8 13 10 -2 10 -9 0 -20 -4 -23 -10z"/>
<path d="M1180 1570 c-9 -6 -10 -10 -3 -10 6 0 15 5 18 10 8 12 4 12 -15 0z"/>
<path d="M2581 1558 c-11 -30 -6 -34 14 -14 9 9 12 16 5 16 -6 0 -8 5 -5 10 3
6 4 10 0 10 -3 0 -9 -10 -14 -22z"/>
<path d="M2842 1568 c-19 -19 -14 -30 11 -28 12 1 24 1 27 0 20 -7 41 -7 46 1
3 5 -3 9 -13 9 -10 0 -28 7 -39 15 -16 10 -24 11 -32 3z"/>
<path d="M1135 1562 c-11 -2 -29 -10 -39 -18 -18 -12 -18 -13 5 -10 26 2 67
22 59 28 -3 3 -14 2 -25 0z"/>
<path d="M3725 1514 c-11 -20 -37 -51 -58 -70 l-39 -33 108 35 c60 19 121 37
137 40 15 4 27 10 27 14 0 6 -133 50 -150 50 -3 0 -14 -16 -25 -36z"/>
<path d="M2605 1510 c4 -6 11 -8 16 -5 14 9 11 15 -7 15 -8 0 -12 -5 -9 -10z"/>
<path d="M3028 1483 c6 -2 18 -2 25 0 6 3 1 5 -13 5 -14 0 -19 -2 -12 -5z"/>
<path d="M2968 1473 c7 -3 16 -2 19 1 4 3 -2 6 -13 5 -11 0 -14 -3 -6 -6z"/>
<path d="M1220 1460 c0 -5 7 -7 15 -4 8 4 15 8 15 10 0 2 -7 4 -15 4 -8 0 -15
-4 -15 -10z"/>
<path d="M2838 1463 c6 -2 18 -2 25 0 6 3 1 5 -13 5 -14 0 -19 -2 -12 -5z"/>
<path d="M1885 1450 c3 -5 14 -10 23 -10 15 0 15 2 2 10 -20 13 -33 13 -25 0z"/>
<path d="M2007 1452 c-9 -2 -17 -8 -17 -12 0 -9 41 -4 90 11 20 6 17 7 -16 6
-22 -1 -48 -3 -57 -5z"/>
<path d="M3160 1453 c0 -2 6 -11 14 -19 17 -16 46 -19 46 -4 0 6 10 14 23 19
17 6 9 9 -30 9 -29 0 -53 -2 -53 -5z"/>
<path d="M1818 1443 c7 -3 16 -2 19 1 4 3 -2 6 -13 5 -11 0 -14 -3 -6 -6z"/>
<path d="M1937 1435 c2 -7 13 -11 24 -8 25 7 24 10 -5 15 -16 3 -23 1 -19 -7z"/>
<path d="M3010 1428 c0 -4 9 -10 20 -13 11 -3 20 -10 20 -15 0 -14 59 -2 76
15 12 12 13 15 2 15 -8 0 -19 -5 -26 -12 -9 -9 -12 -9 -12 1 0 7 -4 9 -10 6
-5 -3 -10 -2 -10 3 0 5 -13 9 -30 8 -16 -1 -30 -4 -30 -8z"/>
<path d="M1430 1400 c-13 -8 -12 -10 3 -10 9 0 17 5 17 10 0 12 -1 12 -20 0z"/>
<path d="M2350 1400 c0 -5 7 -7 15 -4 8 4 15 8 15 10 0 2 -7 4 -15 4 -8 0 -15
-4 -15 -10z"/>
<path d="M1965 1390 c-3 -5 -1 -10 4 -10 6 0 11 5 11 10 0 6 -2 10 -4 10 -3 0
-8 -4 -11 -10z"/>
<path d="M2990 1390 c0 -5 5 -10 11 -10 5 0 7 5 4 10 -3 6 -8 10 -11 10 -2 0
-4 -4 -4 -10z"/>
<path d="M2448 1383 c6 -2 18 -2 25 0 6 3 1 5 -13 5 -14 0 -19 -2 -12 -5z"/>
<path d="M2778 1383 c7 -3 16 -2 19 1 4 3 -2 6 -13 5 -11 0 -14 -3 -6 -6z"/>
<path d="M2705 1370 c3 -5 12 -7 20 -3 21 7 19 13 -6 13 -11 0 -18 -4 -14 -10z"/>
<path d="M1048 1363 c7 -3 16 -2 19 1 4 3 -2 6 -13 5 -11 0 -14 -3 -6 -6z"/>
<path d="M1005 1350 c4 -6 11 -8 16 -5 14 9 11 15 -7 15 -8 0 -12 -5 -9 -10z"/>
<path d="M1930 1349 c0 -5 11 -9 25 -9 14 0 25 2 25 4 0 2 -11 6 -25 8 -14 3
-25 1 -25 -3z"/>
<path d="M2317 1353 c-4 -3 -7 -11 -7 -17 0 -6 5 -5 12 2 6 6 9 14 7 17 -3 3
-9 2 -12 -2z"/>
<path d="M918 1343 c7 -3 16 -2 19 1 4 3 -2 6 -13 5 -11 0 -14 -3 -6 -6z"/>
<path d="M2048 1344 c6 -3 12 -13 12 -22 0 -15 2 -15 10 -2 8 12 10 12 15 -2
4 -9 14 -15 23 -13 9 2 23 4 30 4 6 1 12 5 12 11 0 5 -7 7 -15 3 -10 -3 -15 0
-13 8 2 10 -10 15 -42 16 -25 1 -39 0 -32 -3z"/>
<path d="M2598 1343 c7 -3 16 -2 19 1 4 3 -2 6 -13 5 -11 0 -14 -3 -6 -6z"/>
<path d="M953 1318 c-2 -5 1 -8 6 -9 38 -4 55 -2 58 6 4 12 -57 14 -64 3z"/>
<path d="M3282 1314 c-10 -11 -10 -14 0 -14 7 0 19 4 26 9 11 7 11 9 0 13 -7
3 -19 -1 -26 -8z"/>
<path d="M795 1310 c3 -5 8 -10 11 -10 2 0 4 5 4 10 0 6 -5 10 -11 10 -5 0 -7
-4 -4 -10z"/>
<path d="M890 1311 c0 -6 5 -13 10 -16 6 -3 10 -2 10 4 0 6 7 7 17 4 11 -4 14
-3 9 5 -9 14 -46 16 -46 3z"/>
<path d="M826 1291 c-3 -4 7 -14 22 -21 66 -31 93 -40 87 -31 -3 6 -2 11 3 11
5 0 12 -9 15 -20 3 -13 14 -20 30 -20 14 0 27 -7 31 -15 3 -8 10 -15 15 -15
12 0 9 24 -4 28 -6 2 -18 10 -27 19 -9 8 -22 12 -29 7 -7 -4 -10 -3 -6 3 10
16 -38 34 -52 20 -8 -8 -11 -7 -11 5 0 9 -14 21 -31 27 -38 13 -37 13 -43 2z"/>
<path d="M3164 1288 c2 -7 -9 -18 -23 -25 -14 -6 -19 -12 -11 -12 22 0 79 27
58 28 -9 1 -19 6 -21 11 -3 6 -4 5 -3 -2z"/>
<path d="M3230 1290 c-8 -5 -10 -10 -5 -10 6 0 17 5 25 10 8 5 11 10 5 10 -5
0 -17 -5 -25 -10z"/>
<path d="M2860 1240 c0 -5 7 -7 15 -4 8 4 15 8 15 10 0 2 -7 4 -15 4 -8 0 -15
-4 -15 -10z"/>
<path d="M2815 1230 c-7 -12 -7 -12 22 -15 12 -1 20 1 17 6 -2 4 -12 5 -21 2
-11 -4 -14 -3 -9 5 4 7 5 12 2 12 -3 0 -8 -4 -11 -10z"/>
<path d="M3775 1220 c3 -5 8 -10 11 -10 2 0 4 5 4 10 0 6 -5 10 -11 10 -5 0
-7 -4 -4 -10z"/>
<path d="M2706 1212 c-11 -2 -15 -9 -12 -19 3 -8 6 -17 6 -19 0 -3 5 -2 10 1
6 4 7 11 4 17 -5 7 -2 9 8 5 9 -3 23 0 32 6 14 11 13 12 -7 12 -13 0 -31 -2
-41 -3z"/>
<path d="M2666 1202 c-3 -6 -15 -8 -26 -5 -15 4 -19 2 -15 -9 6 -15 65 -23 65
-10 -1 16 -18 34 -24 24z"/>
<path d="M1848 1183 c18 -2 45 -2 60 0 15 2 0 4 -33 4 -33 0 -45 -2 -27 -4z"/>
<path d="M3652 1170 c0 -14 2 -19 5 -12 2 6 2 18 0 25 -3 6 -5 1 -5 -13z"/>
<path d="M1060 1170 c8 -5 20 -10 25 -10 6 0 3 5 -5 10 -8 5 -19 10 -25 10 -5
0 -3 -5 5 -10z"/>
<path d="M1237 1155 c2 -8 14 -17 25 -21 31 -9 30 0 -2 18 -22 13 -28 13 -23
3z"/>
<path d="M2720 1159 c0 -5 5 -7 10 -4 6 3 10 8 10 11 0 2 -4 4 -10 4 -5 0 -10
-5 -10 -11z"/>
<path d="M3598 1163 c7 -3 16 -2 19 1 4 3 -2 6 -13 5 -11 0 -14 -3 -6 -6z"/>
<path d="M2610 1146 c0 -20 16 -29 41 -21 16 5 18 10 8 21 -13 15 -34 20 -24
5 3 -5 0 -13 -6 -17 -7 -4 -9 -3 -5 4 3 6 2 13 -4 17 -5 3 -10 -1 -10 -9z"/>
<path d="M2675 1150 c3 -5 14 -10 23 -10 15 0 15 2 2 10 -20 13 -33 13 -25 0z"/>
<path d="M1200 1130 c0 -6 7 -10 15 -10 8 0 15 2 15 4 0 2 -7 6 -15 10 -8 3
-15 1 -15 -4z"/>
<path d="M2021 1117 c-13 -21 -12 -21 5 -5 10 10 16 20 13 22 -3 3 -11 -5 -18
-17z"/>
<path d="M2250 1115 c10 -12 9 -16 -5 -21 -13 -5 -14 -9 -3 -15 7 -5 18 -9 23
-9 6 0 3 5 -5 10 -13 9 -13 10 0 11 8 1 18 1 23 0 17 -3 5 15 -19 26 -22 10
-24 10 -14 -2z"/>
<path d="M2319 1125 c-1 -3 -2 -8 -3 -12 -1 -5 -5 -14 -10 -22 -6 -10 -5 -16
2 -19 23 -7 12 -22 -16 -22 -32 0 -73 -35 -50 -43 7 -2 2 -2 -12 0 -19 3 -22
1 -10 -7 8 -5 10 -10 5 -10 -6 0 -17 6 -23 12 -10 10 -15 10 -22 -2 -6 -10
-10 -11 -10 -3 0 7 -7 10 -17 6 -11 -4 -14 -3 -9 6 5 7 14 10 22 7 8 -3 14 -1
14 4 0 5 11 7 24 4 14 -2 27 0 31 5 3 6 -17 9 -53 8 -50 -2 -58 -4 -54 -19 2
-10 -1 -18 -7 -18 -6 0 -10 6 -8 13 1 8 -10 12 -33 11 -19 -1 -86 -3 -148 -4
-106 -2 -140 -7 -79 -12 18 -2 23 -6 17 -14 -6 -6 -6 -15 -2 -20 4 -5 -2 -1
-14 9 -23 19 -39 23 -29 7 3 -6 -1 -7 -9 -4 -9 3 -16 12 -16 20 0 10 -22 13
-100 11 -55 -1 -100 1 -100 4 0 6 -52 13 -195 24 l-60 5 90 -45 c100 -50 99
-50 89 -33 -4 7 -3 8 5 4 6 -4 9 -11 7 -15 -7 -11 105 -56 113 -44 3 5 17 17
31 26 13 9 19 17 12 17 -6 0 -12 4 -12 9 0 5 11 4 24 -2 14 -7 20 -15 14 -18
-6 -4 8 -8 30 -11 34 -3 39 -1 29 11 -10 12 -9 13 10 3 16 -9 30 -8 63 3 22 8
38 10 35 5 -3 -6 -2 -10 4 -10 5 0 14 6 18 13 4 7 22 21 38 31 l30 19 -33 -33
c-18 -18 -43 -34 -57 -35 -13 -2 -34 -10 -47 -19 -26 -19 -17 -22 12 -4 15 10
22 10 32 0 11 -11 10 -12 -3 -7 -10 4 -20 2 -23 -4 -14 -22 37 -20 125 4 356
98 499 140 499 147 0 4 -19 4 -42 2 -24 -3 -52 -6 -63 -7 -11 -1 -23 -6 -27
-12 -5 -6 -8 -3 -8 6 0 9 -7 20 -16 23 -16 6 -11 26 7 26 6 0 7 -6 3 -12 -5
-8 -1 -8 12 2 10 8 21 16 24 18 3 2 -2 3 -10 2 -27 -4 -41 0 -35 10 3 6 4 10
1 10 -3 0 -7 -2 -7 -5z m-843 -100 c19 -8 40 -14 46 -12 6 1 13 -3 15 -10 3
-8 -6 -12 -25 -10 -17 1 -28 5 -25 10 2 4 3 7 1 7 -16 1 -79 29 -65 30 10 0
34 -7 53 -15z m829 5 c3 -5 1 -10 -4 -10 -6 0 -11 5 -11 10 0 6 2 10 4 10 3 0
8 -4 11 -10z m-725 -19 c0 -6 -5 -13 -11 -16 -6 -4 -8 -14 -4 -24 5 -12 4 -13
-6 -4 -9 9 -9 16 -1 26 7 8 9 17 5 20 -3 4 -1 7 5 7 7 0 12 -4 12 -9z m517 -5
c-4 -12 -107 -17 -107 -5 0 5 18 7 40 5 22 -2 40 -1 40 3 0 4 7 8 15 8 9 0 14
-5 12 -11z m-417 0 c0 -2 -13 -6 -30 -8 -16 -3 -30 -1 -30 4 0 4 14 8 30 8 17
0 30 -2 30 -4z m51 -15 c-10 -7 -9 -10 8 -16 11 -3 21 -11 21 -16 0 -5 -11 -2
-25 7 -28 18 -32 30 -12 37 18 6 24 -3 8 -12z m53 6 c-3 -8 -11 -14 -19 -14
-11 0 -12 4 -4 14 6 7 15 13 20 13 5 0 6 -6 3 -13z m126 -7 c-8 -5 -17 -7 -19
-4 -3 3 1 9 9 14 8 5 17 7 19 4 3 -3 -1 -9 -9 -14z m-271 -26 c5 3 12 -1 15
-9 5 -13 -1 -15 -32 -9 -45 8 -51 12 -32 24 9 5 19 5 27 -1 7 -6 16 -8 22 -5z
m171 1 c11 -13 10 -14 -4 -9 -9 3 -16 10 -16 15 0 13 6 11 20 -6z"/>
<path d="M2379 1101 l-26 -30 35 5 c37 5 57 14 29 14 -9 0 -18 4 -21 9 -3 4 8
7 25 5 19 -2 28 0 24 7 -4 5 -16 7 -27 3 -14 -4 -18 -2 -14 5 13 20 1 12 -25
-18z"/>
<path d="M1980 1105 c0 -8 2 -15 4 -15 2 0 6 7 10 15 3 8 1 15 -4 15 -6 0 -10
-7 -10 -15z"/>
<path d="M3561 1104 c0 -11 3 -14 6 -6 3 7 2 16 -1 19 -3 4 -6 -2 -5 -13z"/>
<path d="M2045 1100 c-3 -6 1 -7 9 -4 18 7 21 14 7 14 -6 0 -13 -4 -16 -10z"/>
<path d="M1265 1091 c-3 -5 -2 -12 3 -15 5 -3 9 1 9 9 0 17 -3 19 -12 6z"/>
<path d="M2060 1071 c0 -6 4 -12 8 -15 5 -3 9 1 9 9 0 8 -4 15 -9 15 -4 0 -8
-4 -8 -9z"/>
<path d="M2117 1059 c7 -7 15 -10 18 -7 3 3 -2 9 -12 12 -14 6 -15 5 -6 -5z"/>
<path d="M3182 1024 c-12 -8 -22 -21 -22 -27 0 -7 5 -4 11 6 10 17 39 24 39 8
0 -5 -10 -15 -21 -23 l-21 -14 21 0 c24 0 37 28 24 51 -8 13 -11 13 -31 -1z"/>
<path d="M2668 1003 c7 -3 16 -2 19 1 4 3 -2 6 -13 5 -11 0 -14 -3 -6 -6z"/>
<path d="M3103 1000 c-29 -12 -30 -24 -2 -15 20 7 20 6 4 -24 -21 -41 -12 -40
14 3 30 49 28 54 -16 36z"/>
<path d="M2970 990 c0 -5 5 -10 10 -10 6 0 10 5 10 10 0 6 -4 10 -10 10 -5 0
-10 -4 -10 -10z"/>
<path d="M2580 980 c-8 -5 -10 -10 -5 -10 6 0 17 5 25 10 8 5 11 10 5 10 -5 0
-17 -5 -25 -10z"/>
<path d="M3028 977 c-16 -6 -28 -14 -28 -19 0 -4 11 -3 24 2 l25 9 -21 -34
c-11 -19 -16 -35 -11 -35 5 0 19 20 31 45 23 48 22 49 -20 32z"/>
<path d="M2508 953 c7 -3 16 -2 19 1 4 3 -2 6 -13 5 -11 0 -14 -3 -6 -6z"/>
<path d="M2966 929 c-8 -41 -8 -51 2 -45 8 5 16 76 9 76 -3 0 -7 -14 -11 -31z"/>
<path d="M2468 943 c7 -3 16 -2 19 1 4 3 -2 6 -13 5 -11 0 -14 -3 -6 -6z"/>
<path d="M2888 933 c-12 -3 -20 -18 -24 -44 -4 -24 -12 -39 -20 -39 -8 0 -22
-5 -32 -10 -9 -6 -89 -35 -177 -64 -88 -30 -168 -57 -177 -61 -15 -6 -18 -1
-18 29 0 28 -4 36 -18 36 -25 0 -54 -33 -58 -66 -3 -31 -10 -39 -44 -49 -23
-7 -24 -6 -10 11 20 26 40 62 40 73 0 11 -69 -15 -85 -31 -7 -7 0 -9 22 -5
l31 6 -26 -39 c-14 -22 -33 -40 -43 -40 -10 0 -21 -4 -24 -10 -3 -5 -11 -10
-16 -10 -5 0 2 20 17 45 14 25 24 48 22 50 -6 7 -70 -15 -83 -28 -7 -6 1 -8
23 -3 19 3 32 2 30 -2 -19 -39 -46 -72 -60 -72 -13 0 -15 7 -11 40 4 26 2 40
-6 40 -6 0 -12 -10 -12 -22 -1 -13 -2 -27 -4 -33 -1 -5 -3 -18 -3 -27 -3 -31
-21 -20 -24 15 -3 31 -5 32 -42 30 -22 -2 -40 -4 -41 -5 -2 -2 -6 -23 -9 -47
-3 -24 -7 -45 -8 -46 -2 -1 -38 -14 -80 -30 -43 -15 -78 -31 -78 -36 0 -4 15
-2 33 5 17 7 139 50 269 96 131 45 236 87 235 92 -1 6 9 14 23 19 24 9 24 8 6
-6 -28 -21 -22 -20 115 29 116 41 319 112 347 121 6 3 12 15 12 27 0 33 15 52
35 44 11 -4 15 -13 12 -26 -3 -11 -1 -20 4 -20 5 0 9 16 9 35 0 36 -7 40 -52
28z m-468 -189 c0 -8 -32 -33 -43 -34 -4 0 -3 9 3 20 10 18 40 29 40 14z
m-342 -139 c3 -22 0 -27 -13 -21 -9 3 -14 2 -11 -3 5 -8 -15 -21 -31 -21 -2 0
-1 15 2 33 12 54 47 62 53 12z"/>
<path d="M1341 868 c-1 -31 3 -59 7 -62 5 -3 7 18 5 47 -6 75 -11 81 -12 15z"/>
<path d="M1663 907 c2 -6 30 -22 62 -34 94 -36 99 -37 92 -20 -4 11 3 19 21
25 22 8 17 9 -30 8 -31 -1 -54 2 -52 6 2 4 -4 7 -13 6 -10 0 -33 5 -51 10 -25
8 -32 8 -29 -1z m132 -37 c3 -5 -1 -10 -10 -10 -9 0 -13 5 -10 10 3 6 8 10 10
10 2 0 7 -4 10 -10z"/>
<path d="M2631 904 c0 -11 3 -14 6 -6 3 7 2 16 -1 19 -3 4 -6 -2 -5 -13z"/>
<path d="M1312 880 c0 -14 2 -19 5 -12 2 6 2 18 0 25 -3 6 -5 1 -5 -13z"/>
<path d="M1393 884 l28 -15 -21 -29 c-27 -38 -25 -47 10 -65 17 -9 30 -11 30
-5 0 5 -11 12 -24 16 -26 6 -26 33 0 55 21 17 17 34 -11 47 -37 17 -45 14 -12
-4z"/>
<path d="M1450 862 c0 -5 11 -14 25 -20 l25 -11 -26 -38 -25 -37 33 -17 c18
-10 35 -15 38 -12 3 3 0 8 -6 10 -6 2 -19 9 -28 16 -16 11 -15 14 4 34 19 21
28 65 13 61 -5 -1 -18 3 -30 10 -13 7 -23 9 -23 4z"/>
<path d="M1300 840 c-13 -8 -12 -10 3 -10 9 0 17 5 17 10 0 12 -1 12 -20 0z"/>
<path d="M1829 773 c4 -64 7 -62 14 10 3 31 1 47 -7 47 -7 0 -10 -19 -7 -57z"/>
<path d="M1537 805 c-4 -8 -2 -17 3 -20 4 -3 10 0 12 6 5 14 38 0 38 -17 0
-10 -7 -13 -26 -8 -24 6 -25 4 -22 -26 2 -18 10 -36 18 -40 8 -4 25 -12 38
-19 20 -10 33 1 14 13 -5 3 -9 24 -10 47 -3 59 -50 106 -65 64z m51 -83 c3
-21 1 -22 -17 -12 -26 13 -28 43 -3 38 9 -2 18 -14 20 -26z"/>
<path d="M1320 740 c8 -5 20 -10 25 -10 6 0 3 5 -5 10 -8 5 -19 10 -25 10 -5
0 -3 -5 5 -10z"/>
<path d="M2135 727 c-4 -10 -5 -21 -1 -24 10 -10 18 4 13 24 -4 17 -4 17 -12
0z"/>
<path d="M1408 698 c14 -7 26 -8 32 -2 5 5 -4 10 -23 11 -30 1 -31 1 -9 -9z"/>
<path d="M1826 688 c-6 -18 -4 -49 2 -43 6 6 10 55 5 55 -2 0 -5 -6 -7 -12z"/>
<path d="M2253 675 c0 -8 4 -12 9 -9 5 3 6 10 3 15 -9 13 -12 11 -12 -6z"/>
<path d="M1490 656 c0 -2 7 -6 15 -10 8 -3 15 -1 15 4 0 6 -7 10 -15 10 -8 0
-15 -2 -15 -4z"/>
<path d="M1580 610 c8 -5 22 -10 30 -10 13 0 13 1 0 10 -8 5 -22 10 -30 10
-13 0 -13 -1 0 -10z"/>
<path d="M1670 571 c0 -9 30 -24 36 -18 2 1 -6 8 -16 15 -11 7 -20 8 -20 3z"/>
<path d="M1866 564 c-8 -20 -8 -24 2 -24 4 0 8 9 9 20 2 24 -3 26 -11 4z"/>
<path d="M1821 536 c1 -21 3 -25 6 -11 3 11 9 25 14 31 5 7 3 11 -6 11 -10 0
-15 -10 -14 -31z"/>
<path d="M1790 505 c33 -19 49 -19 24 0 -10 8 -26 14 -34 14 -9 0 -4 -6 10
-14z"/>
</g>
</svg>
